Hacktype-Regular.ufo
<glyph name="quotedbl" format="2">
	<advance width="310"/>
	<unicode hex="0022"/>
	<outline>
		<contour>
			<point x="50" y="685" type="curve" smooth="yes"/>
			<point x="50" y="475" type="line" smooth="yes"/>
			<point x="50" y="467"/>
			<point x="57" y="460"/>
			<point x="65" y="460" type="curve" smooth="yes"/>
			<point x="125" y="460" type="line" smooth="yes"/>
			<point x="133" y="460"/>
			<point x="140" y="467"/>
			<point x="140" y="475" type="curve" smooth="yes"/>
			<point x="140" y="685" type="line" smooth="yes"/>
			<point x="140" y="693"/>
			<point x="133" y="700"/>
			<point x="125" y="700" type="curve" smooth="yes"/>
			<point x="65" y="700" type="line" smooth="yes"/>
			<point x="57" y="700"/>
			<point x="50" y="693"/>
		</contour>
		<contour>
			<point x="170" y="685" type="curve" smooth="yes"/>
			<point x="170" y="475" type="line" smooth="yes"/>
			<point x="170" y="467"/>
			<point x="177" y="460"/>
			<point x="185" y="460" type="curve" smooth="yes"/>
			<point x="245" y="460" type="line" smooth="yes"/>
			<point x="253" y="460"/>
			<point x="260" y="467"/>
			<point x="260" y="475" type="curve" smooth="yes"/>
			<point x="260" y="685" type="line" smooth="yes"/>
			<point x="260" y="693"/>
			<point x="253" y="700"/>
			<point x="245" y="700" type="curve" smooth="yes"/>
			<point x="185" y="700" type="line" smooth="yes"/>
			<point x="177" y="700"/>
			<point x="170" y="693"/>
		</contour>
	</outline>
</glyph>
<glyph name="hyphen" format="2">
	<advance width="421"/>
	<unicode hex="002D"/>
	<outline>
		<contour>
			<point x="50" y="313" type="curve" smooth="yes"/>
			<point x="50" y="264" type="line" smooth="yes"/>
			<point x="50" y="256"/>
			<point x="57" y="249"/>
			<point x="65" y="249" type="curve" smooth="yes"/>
			<point x="356" y="249" type="line" smooth="yes"/>
			<point x="364" y="249"/>
			<point x="371" y="256"/>
			<point x="371" y="264" type="curve" smooth="yes"/>
			<point x="371" y="313" type="line" smooth="yes"/>
			<point x="371" y="321"/>
			<point x="364" y="328"/>
			<point x="356" y="328" type="curve" smooth="yes"/>
			<point x="65" y="328" type="line" smooth="yes"/>
			<point x="57" y="328"/>
			<point x="50" y="321"/>
		</contour>
	</outline>
</glyph>
<glyph name="period" format="2">
	<advance width="210"/>
	<unicode hex="002E"/>
	<outline>
		<contour>
			<point x="50" y="85" type="curve" smooth="yes"/>
			<point x="50" y="15" type="line" smooth="yes"/>
			<point x="50" y="7"/>
			<point x="57" y="0"/>
			<point x="65" y="0" type="curve" smooth="yes"/>
			<point x="145" y="0" type="line" smooth="yes"/>
			<point x="153" y="0"/>
			<point x="160" y="7"/>
			<point x="160" y="15" type="curve" smooth="yes"/>
			<point x="160" y="85" type="line" smooth="yes"/>
			<point x="160" y="93"/>
			<point x="153" y="100"/>
			<point x="145" y="100" type="curve" smooth="yes"/>
			<point x="65" y="100" type="line" smooth="yes"/>
			<point x="57" y="100"/>
			<point x="50" y="93"/>
		</contour>
	</outline>
</glyph>
<glyph name="zero" format="2">
	<advance width="852"/>
	<unicode hex="0030"/>
	<outline>
		<contour>
			<point x="50" y="585" type="curve" smooth="yes"/>
			<point x="50" y="115" type="line" smooth="yes"/>
			<point x="50" y="49"/>
			<point x="99" y="0"/>
			<point x="165" y="0" type="curve" smooth="yes"/>
			<point x="687" y="0" type="line" smooth="yes"/>
			<point x="753" y="0"/>
			<point x="802" y="49"/>
			<point x="802" y="115" type="curve" smooth="yes"/>
			<point x="802" y="585" type="line" smooth="yes"/>
			<point x="802" y="651"/>
			<point x="753" y="700"/>
			<point x="687" y="700" type="curve" smooth="yes"/>
			<point x="165" y="700" type="line" smooth="yes"/>
			<point x="99" y="700"/>
			<point x="50" y="651"/>
		</contour>
		<contour>
			<point x="594" y="357" type="curve" smooth="yes"/>
			<point x="594" y="343" type="line" smooth="yes"/>
			<point x="594" y="335"/>
			<point x="588" y="329"/>
			<point x="580" y="329" type="curve" smooth="yes"/>
			<point x="272" y="329" type="line" smooth="yes"/>
			<point x="264" y="329"/>
			<point x="258" y="335"/>
			<point x="258" y="343" type="curve" smooth="yes"/>
			<point x="258" y="357" type="line" smooth="yes"/>
			<point x="258" y="366"/>
			<point x="264" y="371"/>
			<point x="272" y="371" type="curve" smooth="yes"/>
			<point x="580" y="371" type="line" smooth="yes"/>
			<point x="588" y="371"/>
			<point x="594" y="366"/>
		</contour>
	</outline>
</glyph>
<glyph name="one" format="2">
	<advance width="852"/>
	<unicode hex="0031"/>
	<outline>
		<contour>
			<point x="802" y="71" type="line" smooth="yes"/>
			<point x="802" y="31"/>
			<point x="771" y="0"/>
			<point x="730" y="0" type="curve" smooth="yes"/>
			<point x="345" y="0" type="line" smooth="yes"/>
			<point x="305" y="0"/>
			<point x="274" y="31"/>
			<point x="274" y="71" type="curve" smooth="yes"/>
			<point x="274" y="504" type="line" smooth="yes"/>
			<point x="274" y="512"/>
			<point x="268" y="518"/>
			<point x="260" y="518" type="curve" smooth="yes"/>
			<point x="246" y="518" type="line" smooth="yes"/>
			<point x="238" y="518"/>
			<point x="232" y="512"/>
			<point x="232" y="504" type="curve" smooth="yes"/>
			<point x="232" y="405" type="line" smooth="yes"/>
			<point x="232" y="364"/>
			<point x="201" y="334"/>
			<point x="161" y="334" type="curve" smooth="yes"/>
			<point x="121" y="334" type="line" smooth="yes"/>
			<point x="81" y="334"/>
			<point x="50" y="364"/>
			<point x="50" y="405" type="curve" smooth="yes"/>
			<point x="50" y="629" type="line" smooth="yes"/>
			<point x="50" y="669"/>
			<point x="81" y="700"/>
			<point x="121" y="700" type="curve" smooth="yes"/>
			<point x="730" y="700" type="line" smooth="yes"/>
			<point x="771" y="700"/>
			<point x="802" y="669"/>
			<point x="802" y="629" type="curve" smooth="yes"/>
		</contour>
	</outline>
</glyph>
<glyph name="two" format="2">
	<advance width="850"/>
	<unicode hex="0032"/>
	<outline>
		<contour>
			<point x="50" y="437" type="curve" smooth="yes"/>
			<point x="50" y="583" type="line" smooth="yes"/>
			<point x="50" y="651"/>
			<point x="99" y="700"/>
			<point x="167" y="700" type="curve" smooth="yes"/>
			<point x="683" y="700" type="line" smooth="yes"/>
			<point x="751" y="700"/>
			<point x="800" y="651"/>
			<point x="800" y="583" type="curve" smooth="yes"/>
			<point x="800" y="341" type="line" smooth="yes"/>
			<point x="800" y="273"/>
			<point x="751" y="224"/>
			<point x="683" y="224" type="curve" smooth="yes"/>
			<point x="415" y="224" type="line" smooth="yes"/>
			<point x="407" y="224"/>
			<point x="400" y="217"/>
			<point x="400" y="209" type="curve" smooth="yes"/>
			<point x="400" y="197" type="line" smooth="yes"/>
			<point x="400" y="189"/>
			<point x="407" y="182"/>
			<point x="415" y="182" type="curve" smooth="yes"/>
			<point x="729" y="182" type="line" smooth="yes"/>
			<point x="770" y="182"/>
			<point x="800" y="152"/>
			<point x="800" y="111" type="curve" smooth="yes"/>
			<point x="800" y="71" type="line" smooth="yes"/>
			<point x="800" y="30"/>
			<point x="770" y="0"/>
			<point x="729" y="0" type="curve" smooth="yes"/>
			<point x="121" y="0" type="line" smooth="yes"/>
			<point x="80" y="0"/>
			<point x="50" y="30"/>
			<point x="50" y="71" type="curve" smooth="yes"/>
			<point x="50" y="253" type="line" smooth="yes"/>
			<point x="50" y="294"/>
			<point x="80" y="324"/>
			<point x="121" y="324" type="curve" smooth="yes"/>
			<point x="427" y="324" type="line" smooth="yes"/>
			<point x="435" y="324"/>
			<point x="442" y="331"/>
			<point x="442" y="339" type="curve" smooth="yes"/>
			<point x="442" y="503" type="line" smooth="yes"/>
			<point x="442" y="511"/>
			<point x="435" y="518"/>
			<point x="427" y="518" type="curve" smooth="yes"/>
			<point x="415" y="518" type="line" smooth="yes"/>
			<point x="407" y="518"/>
			<point x="400" y="511"/>
			<point x="400" y="503" type="curve" smooth="yes"/>
			<point x="400" y="381" type="line" smooth="yes"/>
			<point x="400" y="373"/>
			<point x="393" y="366"/>
			<point x="385" y="366" type="curve" smooth="yes"/>
			<point x="121" y="366" type="line" smooth="yes"/>
			<point x="80" y="366"/>
			<point x="50" y="396"/>
		</contour>
	</outline>
</glyph>
<glyph name="four" format="2">
	<advance width="850"/>
	<unicode hex="0034"/>
	<outline>
		<contour>
			<point x="121" y="700" type="curve" smooth="yes"/>
			<point x="642" y="700" type="line" smooth="yes"/>
			<point x="683" y="700"/>
			<point x="713" y="670"/>
			<point x="713" y="629" type="curve" smooth="yes"/>
			<point x="713" y="284" type="line" smooth="yes"/>
			<point x="713" y="276"/>
			<point x="720" y="269"/>
			<point x="728" y="269" type="curve" smooth="yes"/>
			<point x="729" y="269" type="line" smooth="yes"/>
			<point x="770" y="269"/>
			<point x="800" y="239"/>
			<point x="800" y="198" type="curve" smooth="yes"/>
			<point x="800" y="158" type="line" smooth="yes"/>
			<point x="800" y="117"/>
			<point x="770" y="87"/>
			<point x="729" y="87" type="curve" smooth="yes"/>
			<point x="728" y="87" type="line" smooth="yes"/>
			<point x="720" y="87"/>
			<point x="713" y="80"/>
			<point x="713" y="72" type="curve" smooth="yes"/>
			<point x="713" y="71" type="line" smooth="yes"/>
			<point x="713" y="30"/>
			<point x="683" y="0"/>
			<point x="642" y="0" type="curve" smooth="yes"/>
			<point x="602" y="0" type="line" smooth="yes"/>
			<point x="561" y="0"/>
			<point x="531" y="30"/>
			<point x="531" y="71" type="curve" smooth="yes"/>
			<point x="531" y="72" type="line" smooth="yes"/>
			<point x="531" y="80"/>
			<point x="524" y="87"/>
			<point x="516" y="87" type="curve" smooth="yes"/>
			<point x="121" y="87" type="line" smooth="yes"/>
			<point x="80" y="87"/>
			<point x="50" y="117"/>
			<point x="50" y="158" type="curve" smooth="yes"/>
			<point x="50" y="629" type="line" smooth="yes"/>
			<point x="50" y="670"/>
			<point x="80" y="700"/>
		</contour>
		<contour>
			<point x="388" y="568" type="curve" smooth="yes"/>
			<point x="376" y="568" type="line" smooth="yes"/>
			<point x="368" y="568"/>
			<point x="361" y="561"/>
			<point x="361" y="553" type="curve" smooth="yes"/>
			<point x="361" y="284" type="line" smooth="yes"/>
			<point x="361" y="276"/>
			<point x="368" y="269"/>
			<point x="376" y="269" type="curve" smooth="yes"/>
			<point x="388" y="269" type="line" smooth="yes"/>
			<point x="396" y="269"/>
			<point x="403" y="276"/>
			<point x="403" y="284" type="curve" smooth="yes"/>
			<point x="403" y="553" type="line" smooth="yes"/>
			<point x="403" y="561"/>
			<point x="396" y="568"/>
		</contour>
	</outline>
</glyph>
<glyph name="five" format="2">
	<advance width="849"/>
	<unicode hex="0035"/>
	<outline>
		<contour>
			<point x="50" y="629" type="curve" smooth="yes"/>
			<point x="50" y="295" type="line" smooth="yes"/>
			<point x="50" y="254"/>
			<point x="80" y="224"/>
			<point x="121" y="224" type="curve" smooth="yes"/>
			<point x="603" y="224" type="line" smooth="yes"/>
			<point x="611" y="224"/>
			<point x="617" y="218"/>
			<point x="617" y="210" type="curve" smooth="yes"/>
			<point x="617" y="196" type="line" smooth="yes"/>
			<point x="617" y="188"/>
			<point x="611" y="182"/>
			<point x="603" y="182" type="curve" smooth="yes"/>
			<point x="121" y="182" type="line" smooth="yes"/>
			<point x="81" y="182"/>
			<point x="50" y="151"/>
			<point x="50" y="111" type="curve" smooth="yes"/>
			<point x="50" y="71" type="line" smooth="yes"/>
			<point x="50" y="31"/>
			<point x="81" y="0"/>
			<point x="121" y="0" type="curve" smooth="yes"/>
			<point x="684" y="0" type="line" smooth="yes"/>
			<point x="750" y="0"/>
			<point x="799" y="49"/>
			<point x="799" y="115" type="curve" smooth="yes"/>
			<point x="799" y="361" type="line" smooth="yes"/>
			<point x="799" y="427"/>
			<point x="750" y="476"/>
			<point x="684" y="476" type="curve" smooth="yes"/>
			<point x="436" y="476" type="line" smooth="yes"/>
			<point x="428" y="476"/>
			<point x="422" y="481"/>
			<point x="422" y="490" type="curve" smooth="yes"/>
			<point x="422" y="504" type="line" smooth="yes"/>
			<point x="422" y="512"/>
			<point x="428" y="518"/>
			<point x="436" y="518" type="curve" smooth="yes"/>
			<point x="727" y="518" type="line" smooth="yes"/>
			<point x="768" y="518"/>
			<point x="799" y="549"/>
			<point x="799" y="589" type="curve" smooth="yes"/>
			<point x="799" y="628" type="line" smooth="yes"/>
			<point x="799" y="669"/>
			<point x="768" y="700"/>
			<point x="727" y="700" type="curve" smooth="yes"/>
			<point x="121" y="700" type="line" smooth="yes"/>
			<point x="80" y="700"/>
			<point x="50" y="670"/>
		</contour>
	</outline>
</glyph>
<glyph name="six" format="2">
	<advance width="850"/>
	<unicode hex="0036"/>
	<outline>
		<contour>
			<point x="725" y="700" type="curve" smooth="yes"/>
			<point x="167" y="700" type="line" smooth="yes"/>
			<point x="99" y="700"/>
			<point x="50" y="651"/>
			<point x="50" y="583" type="curve" smooth="yes"/>
			<point x="50" y="117" type="line" smooth="yes"/>
			<point x="50" y="49"/>
			<point x="99" y="0"/>
			<point x="167" y="0" type="curve" smooth="yes"/>
			<point x="679" y="0" type="line" smooth="yes"/>
			<point x="747" y="0"/>
			<point x="796" y="49"/>
			<point x="796" y="117" type="curve" smooth="yes"/>
			<point x="796" y="359" type="line" smooth="yes"/>
			<point x="796" y="427"/>
			<point x="747" y="476"/>
			<point x="679" y="476" type="curve" smooth="yes"/>
			<point x="246" y="476" type="line" smooth="yes"/>
			<point x="238" y="476"/>
			<point x="231" y="483"/>
			<point x="231" y="491" type="curve" smooth="yes"/>
			<point x="231" y="503" type="line" smooth="yes"/>
			<point x="231" y="511"/>
			<point x="238" y="518"/>
			<point x="246" y="518" type="curve" smooth="yes"/>
			<point x="725" y="518" type="line" smooth="yes"/>
			<point x="766" y="518"/>
			<point x="796" y="548"/>
			<point x="796" y="589" type="curve" smooth="yes"/>
			<point x="796" y="629" type="line" smooth="yes"/>
			<point x="796" y="670"/>
			<point x="766" y="700"/>
		</contour>
		<contour>
			<point x="231" y="267" type="curve" smooth="yes"/>
			<point x="231" y="279" type="line" smooth="yes"/>
			<point x="231" y="287"/>
			<point x="238" y="294"/>
			<point x="246" y="294" type="curve" smooth="yes"/>
			<point x="600" y="294" type="line" smooth="yes"/>
			<point x="608" y="294"/>
			<point x="615" y="287"/>
			<point x="615" y="279" type="curve" smooth="yes"/>
			<point x="615" y="267" type="line" smooth="yes"/>
			<point x="615" y="259"/>
			<point x="608" y="252"/>
			<point x="600" y="252" type="curve" smooth="yes"/>
			<point x="246" y="252" type="line" smooth="yes"/>
			<point x="238" y="252"/>
			<point x="231" y="259"/>
		</contour>
	</outline>
</glyph>
<glyph name="seven" format="2">
	<advance width="852"/>
	<unicode hex="0037"/>
	<outline>
		<contour>
			<point x="802" y="71" type="curve" smooth="yes"/>
			<point x="802" y="629" type="line" smooth="yes"/>
			<point x="802" y="669"/>
			<point x="771" y="700"/>
			<point x="731" y="700" type="curve" smooth="yes"/>
			<point x="122" y="700" type="line" smooth="yes"/>
			<point x="81" y="700"/>
			<point x="50" y="669"/>
			<point x="50" y="629" type="curve" smooth="yes"/>
			<point x="50" y="529" type="line" smooth="yes"/>
			<point x="50" y="489"/>
			<point x="81" y="458"/>
			<point x="122" y="458" type="curve" smooth="yes"/>
			<point x="326" y="458" type="line" smooth="yes"/>
			<point x="334" y="458"/>
			<point x="340" y="452"/>
			<point x="340" y="444" type="curve" smooth="yes"/>
			<point x="340" y="71" type="line" smooth="yes"/>
			<point x="340" y="31"/>
			<point x="371" y="0"/>
			<point x="411" y="0" type="curve" smooth="yes"/>
			<point x="731" y="0" type="line" smooth="yes"/>
			<point x="771" y="0"/>
			<point x="802" y="31"/>
		</contour>
	</outline>
</glyph>
<glyph name="eight" format="2">
	<advance width="852"/>
	<unicode hex="0038"/>
	<outline>
		<contour>
			<point x="167" y="700" type="curve" smooth="yes"/>
			<point x="687" y="700" type="line" smooth="yes"/>
			<point x="753" y="700"/>
			<point x="802" y="651"/>
			<point x="802" y="585" type="curve" smooth="yes"/>
			<point x="802" y="442" type="line" smooth="yes"/>
			<point x="802" y="402"/>
			<point x="771" y="371"/>
			<point x="730" y="371" type="curve" smooth="yes"/>
			<point x="674" y="371" type="line" smooth="yes"/>
			<point x="666" y="371"/>
			<point x="660" y="365"/>
			<point x="660" y="357" type="curve" smooth="yes"/>
			<point x="660" y="343" type="line" smooth="yes"/>
			<point x="660" y="335"/>
			<point x="666" y="329"/>
			<point x="674" y="329" type="curve" smooth="yes"/>
			<point x="729" y="329" type="line" smooth="yes"/>
			<point x="770" y="329"/>
			<point x="802" y="298"/>
			<point x="802" y="258" type="curve" smooth="yes"/>
			<point x="802" y="115" type="line" smooth="yes"/>
			<point x="802" y="49"/>
			<point x="751" y="0"/>
			<point x="686" y="0" type="curve" smooth="yes"/>
			<point x="167" y="0" type="line" smooth="yes"/>
			<point x="99" y="0"/>
			<point x="50" y="49"/>
			<point x="50" y="117" type="curve" smooth="yes"/>
			<point x="50" y="257" type="line" smooth="yes"/>
			<point x="50" y="298"/>
			<point x="80" y="327"/>
			<point x="121" y="328" type="curve" smooth="yes"/>
			<point x="177" y="329" type="line" smooth="yes"/>
			<point x="185" y="329"/>
			<point x="192" y="336"/>
			<point x="192" y="344" type="curve" smooth="yes"/>
			<point x="192" y="356" type="line" smooth="yes"/>
			<point x="192" y="364"/>
			<point x="185" y="371"/>
			<point x="177" y="371" type="curve" smooth="yes"/>
			<point x="121" y="371" type="line" smooth="yes"/>
			<point x="80" y="371"/>
			<point x="50" y="401"/>
			<point x="50" y="442" type="curve" smooth="yes"/>
			<point x="50" y="583" type="line" smooth="yes"/>
			<point x="50" y="651"/>
			<point x="99" y="700"/>
		</contour>
		<contour>
			<point x="446" y="196" type="curve" smooth="yes"/>
			<point x="446" y="315" type="line" smooth="yes"/>
			<point x="446" y="324"/>
			<point x="440" y="329"/>
			<point x="432" y="329" type="curve" smooth="yes"/>
			<point x="418" y="329" type="line" smooth="yes"/>
			<point x="410" y="329"/>
			<point x="404" y="324"/>
			<point x="404" y="315" type="curve" smooth="yes"/>
			<point x="404" y="196" type="line" smooth="yes"/>
			<point x="404" y="187"/>
			<point x="410" y="182"/>
			<point x="418" y="182" type="curve" smooth="yes"/>
			<point x="432" y="182" type="line" smooth="yes"/>
			<point x="440" y="182"/>
			<point x="446" y="187"/>
		</contour>
		<contour>
			<point x="446" y="385" type="curve" smooth="yes"/>
			<point x="446" y="504" type="line" smooth="yes"/>
			<point x="446" y="513"/>
			<point x="440" y="518"/>
			<point x="432" y="518" type="curve" smooth="yes"/>
			<point x="418" y="518" type="line" smooth="yes"/>
			<point x="410" y="518"/>
			<point x="404" y="513"/>
			<point x="404" y="504" type="curve" smooth="yes"/>
			<point x="404" y="385" type="line" smooth="yes"/>
			<point x="404" y="376"/>
			<point x="410" y="371"/>
			<point x="418" y="371" type="curve" smooth="yes"/>
			<point x="432" y="371" type="line" smooth="yes"/>
			<point x="440" y="371"/>
			<point x="446" y="376"/>
		</contour>
	</outline>
</glyph>
<glyph name="nine" format="2">
	<advance width="852"/>
	<unicode hex="0039"/>
	<outline>
		<contour>
			<point x="802" y="629" type="line" smooth="yes"/>
			<point x="802" y="669"/>
			<point x="771" y="700"/>
			<point x="731" y="700" type="curve" smooth="yes"/>
			<point x="122" y="700" type="line" smooth="yes"/>
			<point x="81" y="700"/>
			<point x="50" y="669"/>
			<point x="50" y="629" type="curve" smooth="yes"/>
			<point x="50" y="295" type="line" smooth="yes"/>
			<point x="50" y="255"/>
			<point x="81" y="224"/>
			<point x="122" y="224" type="curve" smooth="yes"/>
			<point x="606" y="224" type="line" smooth="yes"/>
			<point x="614" y="224"/>
			<point x="620" y="218"/>
			<point x="620" y="210" type="curve" smooth="yes"/>
			<point x="620" y="196" type="line" smooth="yes"/>
			<point x="620" y="188"/>
			<point x="614" y="182"/>
			<point x="606" y="182" type="curve" smooth="yes"/>
			<point x="122" y="182" type="line" smooth="yes"/>
			<point x="81" y="182"/>
			<point x="50" y="151"/>
			<point x="50" y="111" type="curve" smooth="yes"/>
			<point x="50" y="64" type="line" smooth="yes"/>
			<point x="50" y="24"/>
			<point x="81" y="0"/>
			<point x="122" y="0" type="curve" smooth="yes"/>
			<point x="731" y="0" type="line" smooth="yes"/>
			<point x="771" y="0"/>
			<point x="802" y="31"/>
			<point x="802" y="71" type="curve" smooth="yes"/>
		</contour>
		<contour>
			<point x="606" y="406" type="curve" smooth="yes"/>
			<point x="246" y="406" type="line" smooth="yes"/>
			<point x="238" y="406"/>
			<point x="232" y="412"/>
			<point x="232" y="420" type="curve" smooth="yes"/>
			<point x="232" y="434" type="line" smooth="yes"/>
			<point x="232" y="443"/>
			<point x="238" y="448"/>
			<point x="246" y="448" type="curve" smooth="yes"/>
			<point x="606" y="448" type="line" smooth="yes"/>
			<point x="614" y="448"/>
			<point x="620" y="443"/>
			<point x="620" y="434" type="curve" smooth="yes"/>
			<point x="620" y="420" type="line" smooth="yes"/>
			<point x="620" y="412"/>
			<point x="614" y="406"/>
		</contour>
	</outline>
</glyph>
<glyph name="colon" format="2">
	<advance width="210"/>
	<unicode hex="003A"/>
	<outline>
		<contour>
			<point x="50" y="85" type="curve" smooth="yes"/>
			<point x="50" y="15" type="line" smooth="yes"/>
			<point x="50" y="7"/>
			<point x="57" y="0"/>
			<point x="65" y="0" type="curve" smooth="yes"/>
			<point x="145" y="0" type="line" smooth="yes"/>
			<point x="153" y="0"/>
			<point x="160" y="7"/>
			<point x="160" y="15" type="curve" smooth="yes"/>
			<point x="160" y="85" type="line" smooth="yes"/>
			<point x="160" y="93"/>
			<point x="153" y="100"/>
			<point x="145" y="100" type="curve" smooth="yes"/>
			<point x="65" y="100" type="line" smooth="yes"/>
			<point x="57" y="100"/>
			<point x="50" y="93"/>
		</contour>
		<contour>
			<point x="50" y="485" type="curve" smooth="yes"/>
			<point x="50" y="415" type="line" smooth="yes"/>
			<point x="50" y="407"/>
			<point x="57" y="400"/>
			<point x="65" y="400" type="curve" smooth="yes"/>
			<point x="145" y="400" type="line" smooth="yes"/>
			<point x="153" y="400"/>
			<point x="160" y="407"/>
			<point x="160" y="415" type="curve" smooth="yes"/>
			<point x="160" y="485" type="line" smooth="yes"/>
			<point x="160" y="493"/>
			<point x="153" y="500"/>
			<point x="145" y="500" type="curve" smooth="yes"/>
			<point x="65" y="500" type="line" smooth="yes"/>
			<point x="57" y="500"/>
			<point x="50" y="493"/>
		</contour>
	</outline>
</glyph>
<glyph name="A" format="2">
	<advance width="852"/>
	<unicode hex="0041"/>
	<outline>
		<contour>
			<point x="50" y="70" type="curve" smooth="yes"/>
			<point x="50" y="629" type="line" smooth="yes"/>
			<point x="50" y="668"/>
			<point x="79" y="700"/>
			<point x="119" y="700" type="curve" smooth="yes"/>
			<point x="730" y="700" type="line" smooth="yes"/>
			<point x="770" y="700"/>
			<point x="802" y="668"/>
			<point x="802" y="629" type="curve" smooth="yes"/>
			<point x="802" y="69" type="line" smooth="yes"/>
			<point x="802" y="29"/>
			<point x="770" y="0"/>
			<point x="730" y="0" type="curve" smooth="yes"/>
			<point x="686" y="0" type="line" smooth="yes"/>
			<point x="646" y="0"/>
			<point x="616" y="31"/>
			<point x="616" y="70" type="curve" smooth="yes"/>
			<point x="616" y="73" type="line" smooth="yes"/>
			<point x="616" y="81"/>
			<point x="610" y="87"/>
			<point x="602" y="87" type="curve" smooth="yes"/>
			<point x="250" y="87" type="line" smooth="yes"/>
			<point x="242" y="87"/>
			<point x="236" y="81"/>
			<point x="236" y="73" type="curve" smooth="yes"/>
			<point x="236" y="70" type="line" smooth="yes"/>
			<point x="236" y="31"/>
			<point x="205" y="0"/>
			<point x="166" y="0" type="curve" smooth="yes"/>
			<point x="119" y="0" type="line" smooth="yes"/>
			<point x="79" y="0"/>
			<point x="50" y="31"/>
		</contour>
		<contour>
			<point x="246" y="269" type="curve" smooth="yes"/>
			<point x="606" y="269" type="line" smooth="yes"/>
			<point x="614" y="269"/>
			<point x="620" y="274"/>
			<point x="620" y="283" type="curve" smooth="yes"/>
			<point x="620" y="297" type="line" smooth="yes"/>
			<point x="620" y="305"/>
			<point x="614" y="311"/>
			<point x="606" y="311" type="curve" smooth="yes"/>
			<point x="246" y="311" type="line" smooth="yes"/>
			<point x="238" y="311"/>
			<point x="232" y="305"/>
			<point x="232" y="297" type="curve" smooth="yes"/>
			<point x="232" y="283" type="line" smooth="yes"/>
			<point x="232" y="274"/>
			<point x="238" y="269"/>
		</contour>
	</outline>
</glyph>
<glyph name="B" format="2">
	<advance width="852"/>
	<unicode hex="0042"/>
	<outline>
		<contour>
			<point x="121" y="700" type="curve" smooth="yes"/>
			<point x="687" y="700" type="line" smooth="yes"/>
			<point x="753" y="700"/>
			<point x="802" y="651"/>
			<point x="802" y="585" type="curve" smooth="yes"/>
			<point x="802" y="442" type="line" smooth="yes"/>
			<point x="802" y="402"/>
			<point x="771" y="371"/>
			<point x="730" y="371" type="curve" smooth="yes"/>
			<point x="684" y="371" type="line" smooth="yes"/>
			<point x="676" y="371"/>
			<point x="670" y="365"/>
			<point x="670" y="357" type="curve" smooth="yes"/>
			<point x="670" y="343" type="line" smooth="yes"/>
			<point x="670" y="335"/>
			<point x="676" y="329"/>
			<point x="684" y="329" type="curve" smooth="yes"/>
			<point x="729" y="329" type="line" smooth="yes"/>
			<point x="770" y="329"/>
			<point x="800" y="298"/>
			<point x="800" y="258" type="curve" smooth="yes"/>
			<point x="800" y="115" type="line" smooth="yes"/>
			<point x="800" y="49"/>
			<point x="751" y="0"/>
			<point x="686" y="0" type="curve" smooth="yes"/>
			<point x="121" y="0" type="line" smooth="yes"/>
			<point x="81" y="0"/>
			<point x="50" y="31"/>
			<point x="50" y="71" type="curve" smooth="yes"/>
			<point x="50" y="629" type="line" smooth="yes"/>
			<point x="50" y="669"/>
			<point x="81" y="700"/>
		</contour>
		<contour>
			<point x="564" y="329" type="curve" smooth="yes"/>
			<point x="285" y="329" type="line" smooth="yes"/>
			<point x="276" y="329"/>
			<point x="271" y="323"/>
			<point x="271" y="315" type="curve" smooth="yes"/>
			<point x="271" y="301" type="line" smooth="yes"/>
			<point x="271" y="293"/>
			<point x="276" y="287"/>
			<point x="285" y="287" type="curve" smooth="yes"/>
			<point x="564" y="287" type="line" smooth="yes"/>
			<point x="573" y="287"/>
			<point x="578" y="293"/>
			<point x="578" y="301" type="curve" smooth="yes"/>
			<point x="578" y="315" type="line" smooth="yes"/>
			<point x="578" y="323"/>
			<point x="573" y="329"/>
		</contour>
		<contour>
			<point x="564" y="413" type="curve" smooth="yes"/>
			<point x="285" y="413" type="line" smooth="yes"/>
			<point x="276" y="413"/>
			<point x="271" y="407"/>
			<point x="271" y="399" type="curve" smooth="yes"/>
			<point x="271" y="385" type="line" smooth="yes"/>
			<point x="271" y="377"/>
			<point x="276" y="371"/>
			<point x="285" y="371" type="curve" smooth="yes"/>
			<point x="564" y="371" type="line" smooth="yes"/>
			<point x="573" y="371"/>
			<point x="578" y="377"/>
			<point x="578" y="385" type="curve" smooth="yes"/>
			<point x="578" y="399" type="line" smooth="yes"/>
			<point x="578" y="407"/>
			<point x="573" y="413"/>
		</contour>
	</outline>
</glyph>
<glyph name="C" format="2">
	<advance width="852"/>
	<unicode hex="0043"/>
	<outline>
		<contour>
			<point x="50" y="629" type="curve" smooth="yes"/>
			<point x="50" y="71" type="line" smooth="yes"/>
			<point x="50" y="31"/>
			<point x="81" y="0"/>
			<point x="121" y="0" type="curve" smooth="yes"/>
			<point x="730" y="0" type="line" smooth="yes"/>
			<point x="771" y="0"/>
			<point x="802" y="31"/>
			<point x="802" y="71" type="curve" smooth="yes"/>
			<point x="802" y="258" type="line" smooth="yes"/>
			<point x="802" y="298"/>
			<point x="771" y="329"/>
			<point x="730" y="329" type="curve" smooth="yes"/>
			<point x="246" y="329" type="line" smooth="yes"/>
			<point x="238" y="329"/>
			<point x="232" y="335"/>
			<point x="232" y="343" type="curve" smooth="yes"/>
			<point x="232" y="357" type="line" smooth="yes"/>
			<point x="232" y="365"/>
			<point x="238" y="371"/>
			<point x="246" y="371" type="curve" smooth="yes"/>
			<point x="730" y="371" type="line" smooth="yes"/>
			<point x="771" y="371"/>
			<point x="802" y="402"/>
			<point x="802" y="442" type="curve" smooth="yes"/>
			<point x="802" y="629" type="line" smooth="yes"/>
			<point x="802" y="669"/>
			<point x="771" y="700"/>
			<point x="730" y="700" type="curve" smooth="yes"/>
			<point x="121" y="700" type="line" smooth="yes"/>
			<point x="81" y="700"/>
			<point x="50" y="669"/>
		</contour>
	</outline>
</glyph>
<glyph name="D" format="2">
	<advance width="851"/>
	<unicode hex="0044"/>
	<outline>
		<contour>
			<point x="50" y="72" type="line" smooth="yes"/>
			<point x="50" y="31"/>
			<point x="81" y="0"/>
			<point x="122" y="0" type="curve" smooth="yes"/>
			<point x="688" y="0" type="line" smooth="yes"/>
			<point x="753" y="0"/>
			<point x="801" y="48"/>
			<point x="801" y="115" type="curve" smooth="yes"/>
			<point x="801" y="585" type="line" smooth="yes"/>
			<point x="801" y="651"/>
			<point x="753" y="700"/>
			<point x="688" y="700" type="curve" smooth="yes"/>
			<point x="122" y="700" type="line" smooth="yes"/>
			<point x="81" y="700"/>
			<point x="50" y="669"/>
			<point x="50" y="629" type="curve" smooth="yes"/>
		</contour>
		<contour>
			<point x="299" y="372" type="curve" smooth="yes"/>
			<point x="606" y="372" type="line" smooth="yes"/>
			<point x="614" y="372"/>
			<point x="619" y="366"/>
			<point x="619" y="358" type="curve" smooth="yes"/>
			<point x="619" y="343" type="line" smooth="yes"/>
			<point x="619" y="334"/>
			<point x="614" y="329"/>
			<point x="606" y="329" type="curve" smooth="yes"/>
			<point x="299" y="329" type="line" smooth="yes"/>
			<point x="291" y="329"/>
			<point x="285" y="334"/>
			<point x="285" y="343" type="curve" smooth="yes"/>
			<point x="285" y="358" type="line" smooth="yes"/>
			<point x="285" y="366"/>
			<point x="291" y="372"/>
		</contour>
	</outline>
</glyph>
<glyph name="F" format="2">
	<advance width="852"/>
	<unicode hex="0046"/>
	<outline>
		<contour>
			<point x="50" y="629" type="curve" smooth="yes"/>
			<point x="50" y="71" type="line" smooth="yes"/>
			<point x="50" y="31"/>
			<point x="81" y="0"/>
			<point x="121" y="0" type="curve" smooth="yes"/>
			<point x="161" y="0" type="line" smooth="yes"/>
			<point x="201" y="0"/>
			<point x="232" y="31"/>
			<point x="232" y="71" type="curve" smooth="yes"/>
			<point x="232" y="73" type="line" smooth="yes"/>
			<point x="232" y="81"/>
			<point x="238" y="87"/>
			<point x="246" y="87" type="curve" smooth="yes"/>
			<point x="548" y="87" type="line" smooth="yes"/>
			<point x="589" y="87"/>
			<point x="620" y="118"/>
			<point x="620" y="158" type="curve" smooth="yes"/>
			<point x="620" y="301" type="line" smooth="yes"/>
			<point x="620" y="342"/>
			<point x="589" y="372"/>
			<point x="548" y="372" type="curve" smooth="yes"/>
			<point x="246" y="372" type="line" smooth="yes"/>
			<point x="238" y="372"/>
			<point x="232" y="378"/>
			<point x="232" y="386" type="curve" smooth="yes"/>
			<point x="232" y="400" type="line" smooth="yes"/>
			<point x="232" y="409"/>
			<point x="238" y="414"/>
			<point x="246" y="414" type="curve" smooth="yes"/>
			<point x="730" y="414" type="line" smooth="yes"/>
			<point x="771" y="414"/>
			<point x="802" y="445"/>
			<point x="802" y="486" type="curve" smooth="yes"/>
			<point x="802" y="629" type="line" smooth="yes"/>
			<point x="802" y="669"/>
			<point x="771" y="700"/>
			<point x="730" y="700" type="curve" smooth="yes"/>
			<point x="121" y="700" type="line" smooth="yes"/>
			<point x="81" y="700"/>
			<point x="50" y="669"/>
		</contour>
	</outline>
</glyph>
<glyph name="H" format="2">
	<advance width="852"/>
	<unicode hex="0048"/>
	<outline>
		<contour>
			<point x="50" y="629" type="curve" smooth="yes"/>
			<point x="50" y="71" type="line" smooth="yes"/>
			<point x="50" y="31"/>
			<point x="81" y="0"/>
			<point x="121" y="0" type="curve" smooth="yes"/>
			<point x="334" y="0" type="line" smooth="yes"/>
			<point x="375" y="0"/>
			<point x="406" y="31"/>
			<point x="406" y="71" type="curve" smooth="yes"/>
			<point x="406" y="315" type="line" smooth="yes"/>
			<point x="406" y="323"/>
			<point x="411" y="329"/>
			<point x="420" y="329" type="curve" smooth="yes"/>
			<point x="434" y="329" type="line" smooth="yes"/>
			<point x="442" y="329"/>
			<point x="448" y="323"/>
			<point x="448" y="315" type="curve" smooth="yes"/>
			<point x="448" y="71" type="line" smooth="yes"/>
			<point x="448" y="31"/>
			<point x="478" y="0"/>
			<point x="519" y="0" type="curve" smooth="yes"/>
			<point x="730" y="0" type="line" smooth="yes"/>
			<point x="771" y="0"/>
			<point x="802" y="31"/>
			<point x="802" y="71" type="curve" smooth="yes"/>
			<point x="802" y="629" type="line" smooth="yes"/>
			<point x="802" y="669"/>
			<point x="771" y="700"/>
			<point x="730" y="700" type="curve" smooth="yes"/>
			<point x="519" y="700" type="line" smooth="yes"/>
			<point x="478" y="700"/>
			<point x="448" y="669"/>
			<point x="448" y="629" type="curve" smooth="yes"/>
			<point x="448" y="385" type="line" smooth="yes"/>
			<point x="448" y="377"/>
			<point x="442" y="371"/>
			<point x="434" y="371" type="curve" smooth="yes"/>
			<point x="420" y="371" type="line" smooth="yes"/>
			<point x="411" y="371"/>
			<point x="406" y="377"/>
			<point x="406" y="385" type="curve" smooth="yes"/>
			<point x="406" y="629" type="line" smooth="yes"/>
			<point x="406" y="669"/>
			<point x="375" y="700"/>
			<point x="334" y="700" type="curve" smooth="yes"/>
			<point x="121" y="700" type="line" smooth="yes"/>
			<point x="81" y="700"/>
			<point x="50" y="669"/>
		</contour>
	</outline>
</glyph>
<glyph name="J" format="2">
	<advance width="852"/>
	<unicode hex="004A"/>
	<outline>
		<contour>
			<point x="802" y="629" type="curve" smooth="yes"/>
			<point x="802" y="71" type="line" smooth="yes"/>
			<point x="802" y="31"/>
			<point x="771" y="0"/>
			<point x="730" y="0" type="curve" smooth="yes"/>
			<point x="121" y="0" type="line" smooth="yes"/>
			<point x="81" y="0"/>
			<point x="50" y="31"/>
			<point x="50" y="71" type="curve" smooth="yes"/>
			<point x="50" y="525" type="line" smooth="yes"/>
			<point x="50" y="566"/>
			<point x="81" y="596"/>
			<point x="121" y="596" type="curve" smooth="yes"/>
			<point x="161" y="596" type="line" smooth="yes"/>
			<point x="201" y="596"/>
			<point x="232" y="566"/>
			<point x="232" y="525" type="curve" smooth="yes"/>
			<point x="232" y="196" type="line" smooth="yes"/>
			<point x="232" y="188"/>
			<point x="238" y="182"/>
			<point x="246" y="182" type="curve" smooth="yes"/>
			<point x="260" y="182" type="line" smooth="yes"/>
			<point x="268" y="182"/>
			<point x="274" y="188"/>
			<point x="274" y="196" type="curve" smooth="yes"/>
			<point x="274" y="629" type="line" smooth="yes"/>
			<point x="274" y="669"/>
			<point x="305" y="700"/>
			<point x="345" y="700" type="curve" smooth="yes"/>
			<point x="730" y="700" type="line" smooth="yes"/>
			<point x="771" y="700"/>
			<point x="802" y="669"/>
		</contour>
	</outline>
</glyph>
<glyph name="K" format="2">
	<advance width="852"/>
	<unicode hex="004B"/>
	<outline>
		<contour>
			<point x="50" y="629" type="curve" smooth="yes"/>
			<point x="50" y="71" type="line" smooth="yes"/>
			<point x="50" y="31"/>
			<point x="81" y="0"/>
			<point x="121" y="0" type="curve" smooth="yes"/>
			<point x="161" y="0" type="line" smooth="yes"/>
			<point x="201" y="0"/>
			<point x="232" y="31"/>
			<point x="232" y="71" type="curve" smooth="yes"/>
			<point x="232" y="315" type="line" smooth="yes"/>
			<point x="232" y="323"/>
			<point x="238" y="329"/>
			<point x="246" y="329" type="curve" smooth="yes"/>
			<point x="260" y="329" type="line" smooth="yes"/>
			<point x="268" y="329"/>
			<point x="274" y="323"/>
			<point x="274" y="315" type="curve" smooth="yes"/>
			<point x="274" y="71" type="line" smooth="yes"/>
			<point x="274" y="31"/>
			<point x="305" y="0"/>
			<point x="345" y="0" type="curve" smooth="yes"/>
			<point x="730" y="0" type="line" smooth="yes"/>
			<point x="771" y="0"/>
			<point x="802" y="31"/>
			<point x="802" y="71" type="curve" smooth="yes"/>
			<point x="802" y="258" type="line" smooth="yes"/>
			<point x="802" y="298"/>
			<point x="771" y="329"/>
			<point x="730" y="329" type="curve" smooth="yes"/>
			<point x="330" y="329" type="line" smooth="yes"/>
			<point x="322" y="329"/>
			<point x="316" y="335"/>
			<point x="316" y="343" type="curve" smooth="yes"/>
			<point x="316" y="357" type="line" smooth="yes"/>
			<point x="316" y="365"/>
			<point x="322" y="371"/>
			<point x="330" y="371" type="curve" smooth="yes"/>
			<point x="730" y="371" type="line" smooth="yes"/>
			<point x="771" y="371"/>
			<point x="802" y="402"/>
			<point x="802" y="442" type="curve" smooth="yes"/>
			<point x="802" y="629" type="line" smooth="yes"/>
			<point x="802" y="669"/>
			<point x="771" y="700"/>
			<point x="730" y="700" type="curve" smooth="yes"/>
			<point x="345" y="700" type="line" smooth="yes"/>
			<point x="305" y="700"/>
			<point x="274" y="669"/>
			<point x="274" y="629" type="curve" smooth="yes"/>
			<point x="274" y="385" type="line" smooth="yes"/>
			<point x="274" y="377"/>
			<point x="268" y="371"/>
			<point x="260" y="371" type="curve" smooth="yes"/>
			<point x="246" y="371" type="line" smooth="yes"/>
			<point x="238" y="371"/>
			<point x="232" y="377"/>
			<point x="232" y="385" type="curve" smooth="yes"/>
			<point x="232" y="629" type="line" smooth="yes"/>
			<point x="232" y="669"/>
			<point x="201" y="700"/>
			<point x="161" y="700" type="curve" smooth="yes"/>
			<point x="121" y="700" type="line" smooth="yes"/>
			<point x="81" y="700"/>
			<point x="50" y="669"/>
		</contour>
	</outline>
</glyph>
<glyph name="L" format="2">
	<advance width="852"/>
	<unicode hex="004C"/>
	<outline>
		<contour>
			<point x="50" y="629" type="curve" smooth="yes"/>
			<point x="50" y="71" type="line" smooth="yes"/>
			<point x="50" y="31"/>
			<point x="81" y="0"/>
			<point x="121" y="0" type="curve" smooth="yes"/>
			<point x="730" y="0" type="line" smooth="yes"/>
			<point x="771" y="0"/>
			<point x="802" y="31"/>
			<point x="802" y="71" type="curve" smooth="yes"/>
			<point x="802" y="171" type="line" smooth="yes"/>
			<point x="802" y="211"/>
			<point x="771" y="242"/>
			<point x="730" y="242" type="curve" smooth="yes"/>
			<point x="526" y="242" type="line" smooth="yes"/>
			<point x="518" y="242"/>
			<point x="512" y="248"/>
			<point x="512" y="256" type="curve" smooth="yes"/>
			<point x="512" y="629" type="line" smooth="yes"/>
			<point x="512" y="669"/>
			<point x="481" y="700"/>
			<point x="441" y="700" type="curve" smooth="yes"/>
			<point x="121" y="700" type="line" smooth="yes"/>
			<point x="81" y="700"/>
			<point x="50" y="669"/>
		</contour>
	</outline>
</glyph>
<glyph name="M" format="2">
	<advance width="852"/>
	<unicode hex="004D"/>
	<outline>
		<contour>
			<point x="50" y="71" type="curve" smooth="yes"/>
			<point x="50" y="628" type="line" smooth="yes"/>
			<point x="50" y="669"/>
			<point x="81" y="700"/>
			<point x="121" y="700" type="curve" smooth="yes"/>
			<point x="334" y="700" type="line" smooth="yes"/>
			<point x="374" y="700"/>
			<point x="405" y="669"/>
			<point x="405" y="628" type="curve" smooth="yes"/>
			<point x="405" y="370" type="line" smooth="yes"/>
			<point x="405" y="362"/>
			<point x="411" y="356"/>
			<point x="419" y="356" type="curve" smooth="yes"/>
			<point x="433" y="356" type="line" smooth="yes"/>
			<point x="441" y="356"/>
			<point x="447" y="362"/>
			<point x="447" y="370" type="curve" smooth="yes"/>
			<point x="447" y="628" type="line" smooth="yes"/>
			<point x="447" y="669"/>
			<point x="478" y="700"/>
			<point x="519" y="700" type="curve" smooth="yes"/>
			<point x="730" y="700" type="line" smooth="yes"/>
			<point x="771" y="700"/>
			<point x="802" y="669"/>
			<point x="802" y="628" type="curve" smooth="yes"/>
			<point x="802" y="71" type="line" smooth="yes"/>
			<point x="802" y="31"/>
			<point x="771" y="0"/>
			<point x="730" y="0" type="curve" smooth="yes"/>
			<point x="691" y="0" type="line" smooth="yes"/>
			<point x="650" y="0"/>
			<point x="619" y="31"/>
			<point x="619" y="71" type="curve" smooth="yes"/>
			<point x="619" y="342" type="line" smooth="yes"/>
			<point x="619" y="351"/>
			<point x="614" y="356"/>
			<point x="605" y="356" type="curve" smooth="yes"/>
			<point x="591" y="356" type="line" smooth="yes"/>
			<point x="583" y="356"/>
			<point x="577" y="351"/>
			<point x="577" y="342" type="curve" smooth="yes"/>
			<point x="577" y="71" type="line" smooth="yes"/>
			<point x="577" y="31"/>
			<point x="547" y="0"/>
			<point x="506" y="0" type="curve" smooth="yes"/>
			<point x="345" y="0" type="line" smooth="yes"/>
			<point x="305" y="0"/>
			<point x="274" y="31"/>
			<point x="274" y="71" type="curve" smooth="yes"/>
			<point x="274" y="342" type="line" smooth="yes"/>
			<point x="274" y="351"/>
			<point x="269" y="356"/>
			<point x="260" y="356" type="curve" smooth="yes"/>
			<point x="246" y="356" type="line" smooth="yes"/>
			<point x="238" y="356"/>
			<point x="232" y="351"/>
			<point x="232" y="342" type="curve" smooth="yes"/>
			<point x="232" y="71" type="line" smooth="yes"/>
			<point x="232" y="31"/>
			<point x="201" y="0"/>
			<point x="161" y="0" type="curve" smooth="yes"/>
			<point x="121" y="0" type="line" smooth="yes"/>
			<point x="81" y="0"/>
			<point x="50" y="31"/>
		</contour>
	</outline>
</glyph>
<glyph name="O" format="2">
	<advance width="852"/>
	<unicode hex="004F"/>
	<outline>
		<contour>
			<point x="50" y="584" type="curve" smooth="yes"/>
			<point x="50" y="115" type="line" smooth="yes"/>
			<point x="50" y="49"/>
			<point x="99" y="0"/>
			<point x="165" y="0" type="curve" smooth="yes"/>
			<point x="686" y="0" type="line" smooth="yes"/>
			<point x="752" y="0"/>
			<point x="802" y="49"/>
			<point x="802" y="115" type="curve" smooth="yes"/>
			<point x="802" y="584" type="line" smooth="yes"/>
			<point x="802" y="650"/>
			<point x="752" y="700"/>
			<point x="686" y="700" type="curve" smooth="yes"/>
			<point x="165" y="700" type="line" smooth="yes"/>
			<point x="99" y="700"/>
			<point x="50" y="650"/>
		</contour>
		<contour>
			<point x="419" y="518" type="curve" smooth="yes"/>
			<point x="433" y="518" type="line" smooth="yes"/>
			<point x="441" y="518"/>
			<point x="447" y="512"/>
			<point x="447" y="504" type="curve" smooth="yes"/>
			<point x="447" y="196" type="line" smooth="yes"/>
			<point x="447" y="187"/>
			<point x="441" y="182"/>
			<point x="433" y="182" type="curve" smooth="yes"/>
			<point x="419" y="182" type="line" smooth="yes"/>
			<point x="411" y="182"/>
			<point x="405" y="187"/>
			<point x="405" y="196" type="curve" smooth="yes"/>
			<point x="405" y="504" type="line" smooth="yes"/>
			<point x="405" y="512"/>
			<point x="411" y="518"/>
		</contour>
	</outline>
</glyph>
<glyph name="P" format="2">
	<advance width="852"/>
	<unicode hex="0050"/>
	<outline>
		<contour>
			<point x="50" y="629" type="curve" smooth="yes"/>
			<point x="50" y="71" type="line" smooth="yes"/>
			<point x="50" y="31"/>
			<point x="81" y="0"/>
			<point x="121" y="0" type="curve" smooth="yes"/>
			<point x="161" y="0" type="line" smooth="yes"/>
			<point x="201" y="0"/>
			<point x="232" y="31"/>
			<point x="232" y="71" type="curve" smooth="yes"/>
			<point x="232" y="73" type="line" smooth="yes"/>
			<point x="232" y="81"/>
			<point x="238" y="87"/>
			<point x="246" y="87" type="curve" smooth="yes"/>
			<point x="687" y="87" type="line" smooth="yes"/>
			<point x="753" y="87"/>
			<point x="802" y="136"/>
			<point x="802" y="202" type="curve" smooth="yes"/>
			<point x="802" y="585" type="line" smooth="yes"/>
			<point x="802" y="651"/>
			<point x="753" y="700"/>
			<point x="687" y="700" type="curve" smooth="yes"/>
			<point x="121" y="700" type="line" smooth="yes"/>
			<point x="81" y="700"/>
			<point x="50" y="669"/>
		</contour>
		<contour>
			<point x="606" y="372" type="curve" smooth="yes"/>
			<point x="246" y="372" type="line" smooth="yes"/>
			<point x="238" y="372"/>
			<point x="232" y="378"/>
			<point x="232" y="386" type="curve" smooth="yes"/>
			<point x="232" y="400" type="line" smooth="yes"/>
			<point x="232" y="409"/>
			<point x="238" y="414"/>
			<point x="246" y="414" type="curve" smooth="yes"/>
			<point x="606" y="414" type="line" smooth="yes"/>
			<point x="614" y="414"/>
			<point x="620" y="409"/>
			<point x="620" y="400" type="curve" smooth="yes"/>
			<point x="620" y="386" type="line" smooth="yes"/>
			<point x="620" y="378"/>
			<point x="614" y="372"/>
		</contour>
	</outline>
</glyph>
<glyph name="R" format="2">
	<advance width="852"/>
	<unicode hex="0052"/>
	<outline>
		<contour>
			<point x="50" y="629" type="curve" smooth="yes"/>
			<point x="50" y="71" type="line" smooth="yes"/>
			<point x="50" y="31"/>
			<point x="81" y="0"/>
			<point x="121" y="0" type="curve" smooth="yes"/>
			<point x="161" y="0" type="line" smooth="yes"/>
			<point x="201" y="0"/>
			<point x="232" y="31"/>
			<point x="232" y="71" type="curve" smooth="yes"/>
			<point x="232" y="291" type="line" smooth="yes"/>
			<point x="232" y="300"/>
			<point x="238" y="305"/>
			<point x="246" y="305" type="curve" smooth="yes"/>
			<point x="260" y="305" type="line" smooth="yes"/>
			<point x="268" y="305"/>
			<point x="274" y="300"/>
			<point x="274" y="291" type="curve" smooth="yes"/>
			<point x="274" y="71" type="line" smooth="yes"/>
			<point x="274" y="31"/>
			<point x="305" y="0"/>
			<point x="345" y="0" type="curve" smooth="yes"/>
			<point x="731" y="0" type="line" smooth="yes"/>
			<point x="771" y="0"/>
			<point x="802" y="31"/>
			<point x="802" y="71" type="curve" smooth="yes"/>
			<point x="802" y="234" type="line" smooth="yes"/>
			<point x="802" y="274"/>
			<point x="771" y="305"/>
			<point x="731" y="305" type="curve" smooth="yes"/>
			<point x="330" y="305" type="line" smooth="yes"/>
			<point x="322" y="305"/>
			<point x="316" y="311"/>
			<point x="316" y="319" type="curve" smooth="yes"/>
			<point x="316" y="336" type="line" smooth="yes"/>
			<point x="316" y="344"/>
			<point x="322" y="350"/>
			<point x="330" y="350" type="curve" smooth="yes"/>
			<point x="687" y="350" type="line" smooth="yes"/>
			<point x="753" y="350"/>
			<point x="802" y="399"/>
			<point x="802" y="465" type="curve" smooth="yes"/>
			<point x="802" y="585" type="line" smooth="yes"/>
			<point x="802" y="651"/>
			<point x="753" y="700"/>
			<point x="687" y="700" type="curve" smooth="yes"/>
			<point x="121" y="700" type="line" smooth="yes"/>
			<point x="81" y="700"/>
			<point x="50" y="669"/>
		</contour>
		<contour>
			<point x="232" y="406" type="curve" smooth="yes"/>
			<point x="232" y="420" type="line" smooth="yes"/>
			<point x="232" y="429"/>
			<point x="238" y="434"/>
			<point x="246" y="434" type="curve" smooth="yes"/>
			<point x="606" y="434" type="line" smooth="yes"/>
			<point x="614" y="434"/>
			<point x="620" y="429"/>
			<point x="620" y="420" type="curve" smooth="yes"/>
			<point x="620" y="406" type="line" smooth="yes"/>
			<point x="620" y="398"/>
			<point x="614" y="392"/>
			<point x="606" y="392" type="curve" smooth="yes"/>
			<point x="246" y="392" type="line" smooth="yes"/>
			<point x="238" y="392"/>
			<point x="232" y="398"/>
		</contour>
	</outline>
</glyph>
<glyph name="S" format="2">
	<advance width="849"/>
	<unicode hex="0053"/>
	<outline>
		<contour>
			<point x="50" y="585" type="curve" smooth="yes"/>
			<point x="50" y="339" type="line" smooth="yes"/>
			<point x="50" y="273"/>
			<point x="99" y="224"/>
			<point x="165" y="224" type="curve" smooth="yes"/>
			<point x="603" y="224" type="line" smooth="yes"/>
			<point x="611" y="224"/>
			<point x="617" y="218"/>
			<point x="617" y="210" type="curve" smooth="yes"/>
			<point x="617" y="196" type="line" smooth="yes"/>
			<point x="617" y="188"/>
			<point x="611" y="182"/>
			<point x="603" y="182" type="curve" smooth="yes"/>
			<point x="121" y="182" type="line" smooth="yes"/>
			<point x="81" y="182"/>
			<point x="50" y="151"/>
			<point x="50" y="111" type="curve" smooth="yes"/>
			<point x="50" y="71" type="line" smooth="yes"/>
			<point x="50" y="31"/>
			<point x="81" y="0"/>
			<point x="121" y="0" type="curve" smooth="yes"/>
			<point x="684" y="0" type="line" smooth="yes"/>
			<point x="750" y="0"/>
			<point x="799" y="49"/>
			<point x="799" y="115" type="curve" smooth="yes"/>
			<point x="799" y="361" type="line" smooth="yes"/>
			<point x="799" y="427"/>
			<point x="750" y="476"/>
			<point x="684" y="476" type="curve" smooth="yes"/>
			<point x="246" y="476" type="line" smooth="yes"/>
			<point x="238" y="476"/>
			<point x="232" y="481"/>
			<point x="232" y="490" type="curve" smooth="yes"/>
			<point x="232" y="504" type="line" smooth="yes"/>
			<point x="232" y="512"/>
			<point x="238" y="518"/>
			<point x="246" y="518" type="curve" smooth="yes"/>
			<point x="727" y="518" type="line" smooth="yes"/>
			<point x="768" y="518"/>
			<point x="799" y="549"/>
			<point x="799" y="589" type="curve" smooth="yes"/>
			<point x="799" y="628" type="line" smooth="yes"/>
			<point x="799" y="669"/>
			<point x="768" y="700"/>
			<point x="727" y="700" type="curve" smooth="yes"/>
			<point x="165" y="700" type="line" smooth="yes"/>
			<point x="99" y="700"/>
			<point x="50" y="651"/>
		</contour>
	</outline>
</glyph>
<glyph name="T" format="2">
	<advance width="852"/>
	<unicode hex="0054"/>
	<outline>
		<contour>
			<point x="121" y="98" type="curve" smooth="yes"/>
			<point x="161" y="98" type="line" smooth="yes"/>
			<point x="201" y="98"/>
			<point x="232" y="129"/>
			<point x="232" y="169" type="curve" smooth="yes"/>
			<point x="232" y="438" type="line" smooth="yes"/>
			<point x="232" y="447"/>
			<point x="238" y="452"/>
			<point x="246" y="452" type="curve" smooth="yes"/>
			<point x="260" y="452" type="line" smooth="yes"/>
			<point x="268" y="452"/>
			<point x="274" y="447"/>
			<point x="274" y="438" type="curve" smooth="yes"/>
			<point x="274" y="71" type="line" smooth="yes"/>
			<point x="274" y="31"/>
			<point x="305" y="0"/>
			<point x="345" y="0" type="curve" smooth="yes"/>
			<point x="506" y="0" type="line" smooth="yes"/>
			<point x="547" y="0"/>
			<point x="578" y="31"/>
			<point x="578" y="71" type="curve" smooth="yes"/>
			<point x="578" y="438" type="line" smooth="yes"/>
			<point x="578" y="447"/>
			<point x="583" y="452"/>
			<point x="592" y="452" type="curve" smooth="yes"/>
			<point x="606" y="452" type="line" smooth="yes"/>
			<point x="614" y="452"/>
			<point x="620" y="447"/>
			<point x="620" y="438" type="curve" smooth="yes"/>
			<point x="620" y="169" type="line" smooth="yes"/>
			<point x="620" y="129"/>
			<point x="651" y="98"/>
			<point x="691" y="98" type="curve" smooth="yes"/>
			<point x="731" y="98" type="line" smooth="yes"/>
			<point x="771" y="98"/>
			<point x="802" y="129"/>
			<point x="802" y="169" type="curve" smooth="yes"/>
			<point x="802" y="629" type="line" smooth="yes"/>
			<point x="802" y="669"/>
			<point x="771" y="700"/>
			<point x="731" y="700" type="curve" smooth="yes"/>
			<point x="121" y="700" type="line" smooth="yes"/>
			<point x="81" y="700"/>
			<point x="50" y="669"/>
			<point x="50" y="629" type="curve" smooth="yes"/>
			<point x="50" y="169" type="line" smooth="yes"/>
			<point x="50" y="129"/>
			<point x="81" y="98"/>
		</contour>
	</outline>
</glyph>
<glyph name="V" format="2">
	<advance width="851"/>
	<unicode hex="0056"/>
	<outline>
		<contour>
			<point x="50" y="628" type="curve" smooth="yes"/>
			<point x="50" y="158" type="line" smooth="yes"/>
			<point x="50" y="118"/>
			<point x="81" y="87"/>
			<point x="121" y="87" type="curve" smooth="yes"/>
			<point x="221" y="87" type="line" smooth="yes"/>
			<point x="229" y="87"/>
			<point x="235" y="81"/>
			<point x="235" y="73" type="curve" smooth="yes"/>
			<point x="235" y="71" type="line" smooth="yes"/>
			<point x="235" y="31"/>
			<point x="265" y="0"/>
			<point x="306" y="0" type="curve" smooth="yes"/>
			<point x="549" y="0" type="line" smooth="yes"/>
			<point x="590" y="0"/>
			<point x="621" y="31"/>
			<point x="621" y="71" type="curve" smooth="yes"/>
			<point x="621" y="73" type="line" smooth="yes"/>
			<point x="621" y="81"/>
			<point x="626" y="87"/>
			<point x="635" y="87" type="curve" smooth="yes"/>
			<point x="730" y="87" type="line" smooth="yes"/>
			<point x="771" y="87"/>
			<point x="801" y="118"/>
			<point x="801" y="158" type="curve" smooth="yes"/>
			<point x="801" y="628" type="line" smooth="yes"/>
			<point x="801" y="669"/>
			<point x="771" y="700"/>
			<point x="730" y="700" type="curve" smooth="yes"/>
			<point x="517" y="700" type="line" smooth="yes"/>
			<point x="477" y="700"/>
			<point x="446" y="669"/>
			<point x="446" y="628" type="curve" smooth="yes"/>
			<point x="446" y="215" type="line" smooth="yes"/>
			<point x="446" y="207"/>
			<point x="440" y="201"/>
			<point x="432" y="201" type="curve" smooth="yes"/>
			<point x="418" y="201" type="line" smooth="yes"/>
			<point x="410" y="201"/>
			<point x="404" y="207"/>
			<point x="404" y="215" type="curve" smooth="yes"/>
			<point x="404" y="628" type="line" smooth="yes"/>
			<point x="404" y="669"/>
			<point x="373" y="700"/>
			<point x="333" y="700" type="curve" smooth="yes"/>
			<point x="121" y="700" type="line" smooth="yes"/>
			<point x="81" y="700"/>
			<point x="50" y="669"/>
		</contour>
	</outline>
</glyph>
<glyph name="W" format="2">
	<advance width="852"/>
	<unicode hex="0057"/>
	<outline>
		<contour>
			<point x="50" y="629" type="curve" smooth="yes"/>
			<point x="50" y="71" type="line" smooth="yes"/>
			<point x="50" y="31"/>
			<point x="81" y="0"/>
			<point x="121" y="0" type="curve" smooth="yes"/>
			<point x="329" y="0" type="line" smooth="yes"/>
			<point x="369" y="0"/>
			<point x="400" y="31"/>
			<point x="400" y="71" type="curve" smooth="yes"/>
			<point x="400" y="336" type="line" smooth="yes"/>
			<point x="400" y="344"/>
			<point x="406" y="350"/>
			<point x="414" y="350" type="curve" smooth="yes"/>
			<point x="428" y="350" type="line" smooth="yes"/>
			<point x="436" y="350"/>
			<point x="442" y="344"/>
			<point x="442" y="336" type="curve" smooth="yes"/>
			<point x="442" y="71" type="line" smooth="yes"/>
			<point x="442" y="31"/>
			<point x="473" y="0"/>
			<point x="513" y="0" type="curve" smooth="yes"/>
			<point x="730" y="0" type="line" smooth="yes"/>
			<point x="771" y="0"/>
			<point x="802" y="31"/>
			<point x="802" y="71" type="curve" smooth="yes"/>
			<point x="802" y="629" type="line" smooth="yes"/>
			<point x="802" y="669"/>
			<point x="771" y="700"/>
			<point x="730" y="700" type="curve" smooth="yes"/>
			<point x="691" y="700" type="line" smooth="yes"/>
			<point x="651" y="700"/>
			<point x="620" y="669"/>
			<point x="620" y="629" type="curve" smooth="yes"/>
			<point x="620" y="378" type="line" smooth="yes"/>
			<point x="620" y="370"/>
			<point x="614" y="364"/>
			<point x="606" y="364" type="curve" smooth="yes"/>
			<point x="592" y="364" type="line" smooth="yes"/>
			<point x="583" y="364"/>
			<point x="578" y="370"/>
			<point x="578" y="378" type="curve" smooth="yes"/>
			<point x="578" y="629" type="line" smooth="yes"/>
			<point x="578" y="669"/>
			<point x="547" y="700"/>
			<point x="506" y="700" type="curve" smooth="yes"/>
			<point x="345" y="700" type="line" smooth="yes"/>
			<point x="305" y="700"/>
			<point x="274" y="669"/>
			<point x="274" y="629" type="curve" smooth="yes"/>
			<point x="274" y="378" type="line" smooth="yes"/>
			<point x="274" y="370"/>
			<point x="268" y="364"/>
			<point x="260" y="364" type="curve" smooth="yes"/>
			<point x="246" y="364" type="line" smooth="yes"/>
			<point x="238" y="364"/>
			<point x="232" y="370"/>
			<point x="232" y="378" type="curve" smooth="yes"/>
			<point x="232" y="629" type="line" smooth="yes"/>
			<point x="232" y="669"/>
			<point x="201" y="700"/>
			<point x="161" y="700" type="curve" smooth="yes"/>
			<point x="121" y="700" type="line" smooth="yes"/>
			<point x="81" y="700"/>
			<point x="50" y="669"/>
		</contour>
	</outline>
</glyph>
<glyph name="X" format="2">
	<advance width="852"/>
	<unicode hex="0058"/>
	<outline>
		<contour>
			<point x="50" y="629" type="curve" smooth="yes"/>
			<point x="50" y="442" type="line" smooth="yes"/>
			<point x="50" y="402"/>
			<point x="81" y="371"/>
			<point x="121" y="371" type="curve" smooth="yes"/>
			<point x="386" y="371" type="line" smooth="yes"/>
			<point x="394" y="371"/>
			<point x="400" y="365"/>
			<point x="400" y="357" type="curve" smooth="yes"/>
			<point x="400" y="343" type="line" smooth="yes"/>
			<point x="400" y="335"/>
			<point x="394" y="329"/>
			<point x="386" y="329" type="curve" smooth="yes"/>
			<point x="121" y="329" type="line" smooth="yes"/>
			<point x="81" y="329"/>
			<point x="50" y="298"/>
			<point x="50" y="258" type="curve" smooth="yes"/>
			<point x="50" y="71" type="line" smooth="yes"/>
			<point x="50" y="31"/>
			<point x="81" y="0"/>
			<point x="121" y="0" type="curve" smooth="yes"/>
			<point x="333" y="0" type="line" smooth="yes"/>
			<point x="373" y="0"/>
			<point x="404" y="31"/>
			<point x="404" y="71" type="curve" smooth="yes"/>
			<point x="404" y="311" type="line" smooth="yes"/>
			<point x="404" y="319"/>
			<point x="410" y="325"/>
			<point x="418" y="325" type="curve" smooth="yes"/>
			<point x="432" y="325" type="line" smooth="yes"/>
			<point x="441" y="325"/>
			<point x="446" y="319"/>
			<point x="446" y="311" type="curve" smooth="yes"/>
			<point x="446" y="71" type="line" smooth="yes"/>
			<point x="446" y="31"/>
			<point x="477" y="0"/>
			<point x="518" y="0" type="curve" smooth="yes"/>
			<point x="730" y="0" type="line" smooth="yes"/>
			<point x="771" y="0"/>
			<point x="802" y="31"/>
			<point x="802" y="71" type="curve" smooth="yes"/>
			<point x="802" y="258" type="line" smooth="yes"/>
			<point x="802" y="298"/>
			<point x="771" y="329"/>
			<point x="730" y="329" type="curve" smooth="yes"/>
			<point x="464" y="329" type="line" smooth="yes"/>
			<point x="456" y="329"/>
			<point x="450" y="335"/>
			<point x="450" y="343" type="curve" smooth="yes"/>
			<point x="450" y="357" type="line" smooth="yes"/>
			<point x="450" y="365"/>
			<point x="456" y="371"/>
			<point x="464" y="371" type="curve" smooth="yes"/>
			<point x="730" y="371" type="line" smooth="yes"/>
			<point x="771" y="371"/>
			<point x="802" y="402"/>
			<point x="802" y="442" type="curve" smooth="yes"/>
			<point x="802" y="629" type="line" smooth="yes"/>
			<point x="802" y="669"/>
			<point x="771" y="700"/>
			<point x="730" y="700" type="curve" smooth="yes"/>
			<point x="518" y="700" type="line" smooth="yes"/>
			<point x="477" y="700"/>
			<point x="446" y="669"/>
			<point x="446" y="629" type="curve" smooth="yes"/>
			<point x="446" y="389" type="line" smooth="yes"/>
			<point x="446" y="381"/>
			<point x="441" y="375"/>
			<point x="432" y="375" type="curve" smooth="yes"/>
			<point x="418" y="375" type="line" smooth="yes"/>
			<point x="410" y="375"/>
			<point x="404" y="381"/>
			<point x="404" y="389" type="curve" smooth="yes"/>
			<point x="404" y="629" type="line" smooth="yes"/>
			<point x="404" y="669"/>
			<point x="373" y="700"/>
			<point x="333" y="700" type="curve" smooth="yes"/>
			<point x="121" y="700" type="line" smooth="yes"/>
			<point x="81" y="700"/>
			<point x="50" y="669"/>
		</contour>
	</outline>
</glyph>
<glyph name="Y" format="2">
	<advance width="853"/>
	<unicode hex="0059"/>
	<outline>
		<contour>
			<point x="50" y="629" type="curve" smooth="yes"/>
			<point x="50" y="422" type="line" smooth="yes"/>
			<point x="50" y="381"/>
			<point x="81" y="350"/>
			<point x="121" y="350" type="curve" smooth="yes"/>
			<point x="218" y="350" type="line" smooth="yes"/>
			<point x="226" y="350"/>
			<point x="232" y="344"/>
			<point x="232" y="336" type="curve" smooth="yes"/>
			<point x="232" y="71" type="line" smooth="yes"/>
			<point x="232" y="31"/>
			<point x="263" y="0"/>
			<point x="303" y="0" type="curve" smooth="yes"/>
			<point x="550" y="0" type="line" smooth="yes"/>
			<point x="591" y="0"/>
			<point x="621" y="31"/>
			<point x="621" y="71" type="curve" smooth="yes"/>
			<point x="621" y="336" type="line" smooth="yes"/>
			<point x="621" y="344"/>
			<point x="627" y="350"/>
			<point x="635" y="350" type="curve" smooth="yes"/>
			<point x="732" y="350" type="line" smooth="yes"/>
			<point x="773" y="350"/>
			<point x="803" y="381"/>
			<point x="803" y="422" type="curve" smooth="yes"/>
			<point x="803" y="629" type="line" smooth="yes"/>
			<point x="803" y="669"/>
			<point x="773" y="700"/>
			<point x="732" y="700" type="curve" smooth="yes"/>
			<point x="520" y="700" type="line" smooth="yes"/>
			<point x="479" y="700"/>
			<point x="448" y="669"/>
			<point x="448" y="629" type="curve" smooth="yes"/>
			<point x="448" y="372" type="line" smooth="yes"/>
			<point x="448" y="364"/>
			<point x="443" y="358"/>
			<point x="434" y="358" type="curve" smooth="yes"/>
			<point x="420" y="358" type="line" smooth="yes"/>
			<point x="412" y="358"/>
			<point x="406" y="364"/>
			<point x="406" y="372" type="curve" smooth="yes"/>
			<point x="406" y="629" type="line" smooth="yes"/>
			<point x="406" y="669"/>
			<point x="375" y="700"/>
			<point x="335" y="700" type="curve" smooth="yes"/>
			<point x="121" y="700" type="line" smooth="yes"/>
			<point x="81" y="700"/>
			<point x="50" y="669"/>
		</contour>
	</outline>
</glyph>
<glyph name="a" format="2">
	<advance width="637"/>
	<unicode hex="0061"/>
	<outline>
		<contour>
			<point x="50" y="50" type="curve" smooth="yes"/>
			<point x="50" y="449" type="line" smooth="yes"/>
			<point x="50" y="477"/>
			<point x="71" y="500"/>
			<point x="99" y="500" type="curve" smooth="yes"/>
			<point x="536" y="500" type="line" smooth="yes"/>
			<point x="564" y="500"/>
			<point x="587" y="477"/>
			<point x="587" y="449" type="curve" smooth="yes"/>
			<point x="587" y="49" type="line" smooth="yes"/>
			<point x="587" y="21"/>
			<point x="564" y="0"/>
			<point x="536" y="0" type="curve" smooth="yes"/>
			<point x="504" y="0" type="line" smooth="yes"/>
			<point x="476" y="0"/>
			<point x="454" y="22"/>
			<point x="454" y="50" type="curve" smooth="yes"/>
			<point x="454" y="52" type="line" smooth="yes"/>
			<point x="454" y="58"/>
			<point x="450" y="62"/>
			<point x="444" y="62" type="curve" smooth="yes"/>
			<point x="193" y="62" type="line" smooth="yes"/>
			<point x="187" y="62"/>
			<point x="183" y="58"/>
			<point x="183" y="52" type="curve" smooth="yes"/>
			<point x="183" y="50" type="line" smooth="yes"/>
			<point x="183" y="22"/>
			<point x="161" y="0"/>
			<point x="133" y="0" type="curve" smooth="yes"/>
			<point x="99" y="0" type="line" smooth="yes"/>
			<point x="71" y="0"/>
			<point x="50" y="22"/>
		</contour>
		<contour>
			<point x="190" y="192" type="curve" smooth="yes"/>
			<point x="447" y="192" type="line" smooth="yes"/>
			<point x="453" y="192"/>
			<point x="457" y="196"/>
			<point x="457" y="202" type="curve" smooth="yes"/>
			<point x="457" y="212" type="line" smooth="yes"/>
			<point x="457" y="218"/>
			<point x="453" y="222"/>
			<point x="447" y="222" type="curve" smooth="yes"/>
			<point x="190" y="222" type="line" smooth="yes"/>
			<point x="184" y="222"/>
			<point x="180" y="218"/>
			<point x="180" y="212" type="curve" smooth="yes"/>
			<point x="180" y="202" type="line" smooth="yes"/>
			<point x="180" y="196"/>
			<point x="184" y="192"/>
		</contour>
	</outline>
</glyph>
<glyph name="b" format="2">
	<advance width="637"/>
	<unicode hex="0062"/>
	<outline>
		<contour>
			<point x="101" y="500" type="curve" smooth="yes"/>
			<point x="505" y="500" type="line" smooth="yes"/>
			<point x="552" y="500"/>
			<point x="587" y="465"/>
			<point x="587" y="418" type="curve" smooth="yes"/>
			<point x="587" y="316" type="line" smooth="yes"/>
			<point x="587" y="287"/>
			<point x="565" y="265"/>
			<point x="536" y="265" type="curve" smooth="yes"/>
			<point x="503" y="265" type="line" smooth="yes"/>
			<point x="497" y="265"/>
			<point x="493" y="261"/>
			<point x="493" y="255" type="curve" smooth="yes"/>
			<point x="493" y="245" type="line" smooth="yes"/>
			<point x="493" y="239"/>
			<point x="497" y="235"/>
			<point x="503" y="235" type="curve" smooth="yes"/>
			<point x="535" y="235" type="line" smooth="yes"/>
			<point x="564" y="235"/>
			<point x="586" y="213"/>
			<point x="586" y="184" type="curve" smooth="yes"/>
			<point x="586" y="82" type="line" smooth="yes"/>
			<point x="586" y="35"/>
			<point x="551" y="0"/>
			<point x="504" y="0" type="curve" smooth="yes"/>
			<point x="101" y="0" type="line" smooth="yes"/>
			<point x="72" y="0"/>
			<point x="50" y="22"/>
			<point x="50" y="51" type="curve" smooth="yes"/>
			<point x="50" y="449" type="line" smooth="yes"/>
			<point x="50" y="478"/>
			<point x="72" y="500"/>
		</contour>
		<contour>
			<point x="417" y="235" type="curve" smooth="yes"/>
			<point x="218" y="235" type="line" smooth="yes"/>
			<point x="211" y="235"/>
			<point x="208" y="231"/>
			<point x="208" y="225" type="curve" smooth="yes"/>
			<point x="208" y="215" type="line" smooth="yes"/>
			<point x="208" y="209"/>
			<point x="211" y="205"/>
			<point x="218" y="205" type="curve" smooth="yes"/>
			<point x="417" y="205" type="line" smooth="yes"/>
			<point x="424" y="205"/>
			<point x="427" y="209"/>
			<point x="427" y="215" type="curve" smooth="yes"/>
			<point x="427" y="225" type="line" smooth="yes"/>
			<point x="427" y="231"/>
			<point x="424" y="235"/>
		</contour>
		<contour>
			<point x="417" y="295" type="curve" smooth="yes"/>
			<point x="218" y="295" type="line" smooth="yes"/>
			<point x="211" y="295"/>
			<point x="208" y="291"/>
			<point x="208" y="285" type="curve" smooth="yes"/>
			<point x="208" y="275" type="line" smooth="yes"/>
			<point x="208" y="269"/>
			<point x="211" y="265"/>
			<point x="218" y="265" type="curve" smooth="yes"/>
			<point x="417" y="265" type="line" smooth="yes"/>
			<point x="424" y="265"/>
			<point x="427" y="269"/>
			<point x="427" y="275" type="curve" smooth="yes"/>
			<point x="427" y="285" type="line" smooth="yes"/>
			<point x="427" y="291"/>
			<point x="424" y="295"/>
		</contour>
	</outline>
</glyph>
<glyph name="c" format="2">
	<advance width="637"/>
	<unicode hex="0063"/>
	<outline>
		<contour>
			<point x="50" y="449" type="curve" smooth="yes"/>
			<point x="50" y="51" type="line" smooth="yes"/>
			<point x="50" y="22"/>
			<point x="72" y="0"/>
			<point x="101" y="0" type="curve" smooth="yes"/>
			<point x="536" y="0" type="line" smooth="yes"/>
			<point x="565" y="0"/>
			<point x="587" y="22"/>
			<point x="587" y="51" type="curve" smooth="yes"/>
			<point x="587" y="184" type="line" smooth="yes"/>
			<point x="587" y="213"/>
			<point x="565" y="235"/>
			<point x="536" y="235" type="curve" smooth="yes"/>
			<point x="190" y="235" type="line" smooth="yes"/>
			<point x="184" y="235"/>
			<point x="180" y="239"/>
			<point x="180" y="245" type="curve" smooth="yes"/>
			<point x="180" y="255" type="line" smooth="yes"/>
			<point x="180" y="261"/>
			<point x="184" y="265"/>
			<point x="190" y="265" type="curve" smooth="yes"/>
			<point x="536" y="265" type="line" smooth="yes"/>
			<point x="565" y="265"/>
			<point x="587" y="287"/>
			<point x="587" y="316" type="curve" smooth="yes"/>
			<point x="587" y="449" type="line" smooth="yes"/>
			<point x="587" y="478"/>
			<point x="565" y="500"/>
			<point x="536" y="500" type="curve" smooth="yes"/>
			<point x="101" y="500" type="line" smooth="yes"/>
			<point x="72" y="500"/>
			<point x="50" y="478"/>
		</contour>
	</outline>
</glyph>
<glyph name="d" format="2">
	<advance width="637"/>
	<unicode hex="0064"/>
	<outline>
		<contour>
			<point x="50" y="51" type="line" smooth="yes"/>
			<point x="50" y="22"/>
			<point x="72" y="0"/>
			<point x="101" y="0" type="curve" smooth="yes"/>
			<point x="505" y="0" type="line" smooth="yes"/>
			<point x="552" y="0"/>
			<point x="587" y="35"/>
			<point x="587" y="82" type="curve" smooth="yes"/>
			<point x="587" y="418" type="line" smooth="yes"/>
			<point x="587" y="465"/>
			<point x="552" y="500"/>
			<point x="505" y="500" type="curve" smooth="yes"/>
			<point x="101" y="500" type="line" smooth="yes"/>
			<point x="72" y="500"/>
			<point x="50" y="478"/>
			<point x="50" y="449" type="curve" smooth="yes"/>
		</contour>
		<contour>
			<point x="228" y="265" type="curve" smooth="yes"/>
			<point x="447" y="265" type="line" smooth="yes"/>
			<point x="453" y="265"/>
			<point x="457" y="261"/>
			<point x="457" y="255" type="curve" smooth="yes"/>
			<point x="457" y="245" type="line" smooth="yes"/>
			<point x="457" y="239"/>
			<point x="453" y="235"/>
			<point x="447" y="235" type="curve" smooth="yes"/>
			<point x="228" y="235" type="line" smooth="yes"/>
			<point x="222" y="235"/>
			<point x="218" y="239"/>
			<point x="218" y="245" type="curve" smooth="yes"/>
			<point x="218" y="255" type="line" smooth="yes"/>
			<point x="218" y="261"/>
			<point x="222" y="265"/>
		</contour>
	</outline>
</glyph>
<glyph name="e" format="2">
	<advance width="637"/>
	<unicode hex="0065"/>
	<anchor x="318" y="500" name="top"/>
	<outline>
		<contour>
			<point x="50" y="449" type="curve" smooth="yes"/>
			<point x="50" y="51" type="line" smooth="yes"/>
			<point x="50" y="22"/>
			<point x="72" y="0"/>
			<point x="101" y="0" type="curve" smooth="yes"/>
			<point x="536" y="0" type="line" smooth="yes"/>
			<point x="565" y="0"/>
			<point x="587" y="22"/>
			<point x="587" y="51" type="curve" smooth="yes"/>
			<point x="587" y="79" type="line" smooth="yes"/>
			<point x="587" y="108"/>
			<point x="565" y="130"/>
			<point x="536" y="130" type="curve" smooth="yes"/>
			<point x="194" y="130" type="line" smooth="yes"/>
			<point x="188" y="130"/>
			<point x="184" y="134"/>
			<point x="184" y="140" type="curve" smooth="yes"/>
			<point x="184" y="150" type="line" smooth="yes"/>
			<point x="184" y="156"/>
			<point x="188" y="160"/>
			<point x="194" y="160" type="curve" smooth="yes"/>
			<point x="458" y="160" type="line" smooth="yes"/>
			<point x="487" y="160"/>
			<point x="509" y="182"/>
			<point x="509" y="211" type="curve" smooth="yes"/>
			<point x="509" y="289" type="line" smooth="yes"/>
			<point x="509" y="318"/>
			<point x="487" y="340"/>
			<point x="458" y="340" type="curve" smooth="yes"/>
			<point x="194" y="340" type="line" smooth="yes"/>
			<point x="188" y="340"/>
			<point x="184" y="344"/>
			<point x="184" y="350" type="curve" smooth="yes"/>
			<point x="184" y="360" type="line" smooth="yes"/>
			<point x="184" y="366"/>
			<point x="188" y="370"/>
			<point x="194" y="370" type="curve" smooth="yes"/>
			<point x="536" y="370" type="line" smooth="yes"/>
			<point x="565" y="370"/>
			<point x="587" y="392"/>
			<point x="587" y="421" type="curve" smooth="yes"/>
			<point x="587" y="449" type="line" smooth="yes"/>
			<point x="587" y="478"/>
			<point x="565" y="500"/>
			<point x="536" y="500" type="curve" smooth="yes"/>
			<point x="101" y="500" type="line" smooth="yes"/>
			<point x="72" y="500"/>
			<point x="50" y="478"/>
		</contour>
	</outline>
</glyph>
<glyph name="f" format="2">
	<advance width="637"/>
	<unicode hex="0066"/>
	<outline>
		<contour>
			<point x="50" y="449" type="curve" smooth="yes"/>
			<point x="50" y="51" type="line" smooth="yes"/>
			<point x="50" y="22"/>
			<point x="72" y="0"/>
			<point x="101" y="0" type="curve" smooth="yes"/>
			<point x="129" y="0" type="line" smooth="yes"/>
			<point x="158" y="0"/>
			<point x="180" y="22"/>
			<point x="180" y="51" type="curve" smooth="yes"/>
			<point x="180" y="52" type="line" smooth="yes"/>
			<point x="180" y="58"/>
			<point x="184" y="62"/>
			<point x="190" y="62" type="curve" smooth="yes"/>
			<point x="406" y="62" type="line" smooth="yes"/>
			<point x="435" y="62"/>
			<point x="457" y="84"/>
			<point x="457" y="113" type="curve" smooth="yes"/>
			<point x="457" y="215" type="line" smooth="yes"/>
			<point x="457" y="244"/>
			<point x="435" y="266"/>
			<point x="406" y="266" type="curve" smooth="yes"/>
			<point x="190" y="266" type="line" smooth="yes"/>
			<point x="184" y="266"/>
			<point x="180" y="270"/>
			<point x="180" y="276" type="curve" smooth="yes"/>
			<point x="180" y="286" type="line" smooth="yes"/>
			<point x="180" y="292"/>
			<point x="184" y="296"/>
			<point x="190" y="296" type="curve" smooth="yes"/>
			<point x="536" y="296" type="line" smooth="yes"/>
			<point x="565" y="296"/>
			<point x="587" y="318"/>
			<point x="587" y="347" type="curve" smooth="yes"/>
			<point x="587" y="449" type="line" smooth="yes"/>
			<point x="587" y="478"/>
			<point x="565" y="500"/>
			<point x="536" y="500" type="curve" smooth="yes"/>
			<point x="101" y="500" type="line" smooth="yes"/>
			<point x="72" y="500"/>
			<point x="50" y="478"/>
		</contour>
	</outline>
</glyph>
<glyph name="g" format="2">
	<advance width="637"/>
	<unicode hex="0067"/>
	<outline>
		<contour>
			<point x="50" y="418" type="curve" smooth="yes"/>
			<point x="50" y="82" type="line" smooth="yes"/>
			<point x="50" y="35"/>
			<point x="85" y="0"/>
			<point x="132" y="0" type="curve" smooth="yes"/>
			<point x="505" y="0" type="line" smooth="yes"/>
			<point x="552" y="0"/>
			<point x="587" y="35"/>
			<point x="587" y="82" type="curve" smooth="yes"/>
			<point x="587" y="169" type="line" smooth="yes"/>
			<point x="587" y="198"/>
			<point x="565" y="220"/>
			<point x="536" y="220" type="curve" smooth="yes"/>
			<point x="220" y="220" type="line" smooth="yes"/>
			<point x="214" y="220"/>
			<point x="210" y="216"/>
			<point x="210" y="210" type="curve" smooth="yes"/>
			<point x="210" y="200" type="line" smooth="yes"/>
			<point x="210" y="194"/>
			<point x="214" y="190"/>
			<point x="220" y="190" type="curve" smooth="yes"/>
			<point x="447" y="190" type="line" smooth="yes"/>
			<point x="453" y="190"/>
			<point x="457" y="186"/>
			<point x="457" y="180" type="curve" smooth="yes"/>
			<point x="457" y="170" type="line" smooth="yes"/>
			<point x="457" y="164"/>
			<point x="453" y="160"/>
			<point x="447" y="160" type="curve" smooth="yes"/>
			<point x="190" y="160" type="line" smooth="yes"/>
			<point x="184" y="160"/>
			<point x="180" y="164"/>
			<point x="180" y="170" type="curve" smooth="yes"/>
			<point x="180" y="240" type="line" smooth="yes"/>
			<point x="180" y="246"/>
			<point x="184" y="250"/>
			<point x="190" y="250" type="curve" smooth="yes"/>
			<point x="536" y="250" type="line" smooth="yes"/>
			<point x="565" y="250"/>
			<point x="587" y="272"/>
			<point x="587" y="301" type="curve" smooth="yes"/>
			<point x="587" y="449" type="line" smooth="yes"/>
			<point x="587" y="478"/>
			<point x="565" y="500"/>
			<point x="536" y="500" type="curve" smooth="yes"/>
			<point x="132" y="500" type="line" smooth="yes"/>
			<point x="85" y="500"/>
			<point x="50" y="465"/>
		</contour>
	</outline>
</glyph>
<glyph name="h" format="2">
	<advance width="637"/>
	<unicode hex="0068"/>
	<outline>
		<contour>
			<point x="50" y="449" type="curve" smooth="yes"/>
			<point x="50" y="51" type="line" smooth="yes"/>
			<point x="50" y="22"/>
			<point x="72" y="0"/>
			<point x="101" y="0" type="curve" smooth="yes"/>
			<point x="253" y="0" type="line" smooth="yes"/>
			<point x="282" y="0"/>
			<point x="304" y="22"/>
			<point x="304" y="51" type="curve" smooth="yes"/>
			<point x="304" y="225" type="line" smooth="yes"/>
			<point x="304" y="231"/>
			<point x="308" y="235"/>
			<point x="314" y="235" type="curve" smooth="yes"/>
			<point x="324" y="235" type="line" smooth="yes"/>
			<point x="330" y="235"/>
			<point x="334" y="231"/>
			<point x="334" y="225" type="curve" smooth="yes"/>
			<point x="334" y="51" type="line" smooth="yes"/>
			<point x="334" y="22"/>
			<point x="356" y="0"/>
			<point x="385" y="0" type="curve" smooth="yes"/>
			<point x="536" y="0" type="line" smooth="yes"/>
			<point x="565" y="0"/>
			<point x="587" y="22"/>
			<point x="587" y="51" type="curve" smooth="yes"/>
			<point x="587" y="449" type="line" smooth="yes"/>
			<point x="587" y="478"/>
			<point x="565" y="500"/>
			<point x="536" y="500" type="curve" smooth="yes"/>
			<point x="385" y="500" type="line" smooth="yes"/>
			<point x="356" y="500"/>
			<point x="334" y="478"/>
			<point x="334" y="449" type="curve" smooth="yes"/>
			<point x="334" y="275" type="line" smooth="yes"/>
			<point x="334" y="269"/>
			<point x="330" y="265"/>
			<point x="324" y="265" type="curve" smooth="yes"/>
			<point x="314" y="265" type="line" smooth="yes"/>
			<point x="308" y="265"/>
			<point x="304" y="269"/>
			<point x="304" y="275" type="curve" smooth="yes"/>
			<point x="304" y="449" type="line" smooth="yes"/>
			<point x="304" y="478"/>
			<point x="282" y="500"/>
			<point x="253" y="500" type="curve" smooth="yes"/>
			<point x="101" y="500" type="line" smooth="yes"/>
			<point x="72" y="500"/>
			<point x="50" y="478"/>
		</contour>
	</outline>
</glyph>
<glyph name="j" format="2">
	<advance width="637"/>
	<unicode hex="006A"/>
	<outline>
		<contour>
			<point x="587" y="449" type="curve" smooth="yes"/>
			<point x="587" y="51" type="line" smooth="yes"/>
			<point x="587" y="22"/>
			<point x="565" y="0"/>
			<point x="536" y="0" type="curve" smooth="yes"/>
			<point x="101" y="0" type="line" smooth="yes"/>
			<point x="72" y="0"/>
			<point x="50" y="22"/>
			<point x="50" y="51" type="curve" smooth="yes"/>
			<point x="50" y="375" type="line" smooth="yes"/>
			<point x="50" y="404"/>
			<point x="72" y="426"/>
			<point x="101" y="426" type="curve" smooth="yes"/>
			<point x="129" y="426" type="line" smooth="yes"/>
			<point x="158" y="426"/>
			<point x="180" y="404"/>
			<point x="180" y="375" type="curve" smooth="yes"/>
			<point x="180" y="140" type="line" smooth="yes"/>
			<point x="180" y="134"/>
			<point x="184" y="130"/>
			<point x="190" y="130" type="curve" smooth="yes"/>
			<point x="200" y="130" type="line" smooth="yes"/>
			<point x="206" y="130"/>
			<point x="210" y="134"/>
			<point x="210" y="140" type="curve" smooth="yes"/>
			<point x="210" y="449" type="line" smooth="yes"/>
			<point x="210" y="478"/>
			<point x="232" y="500"/>
			<point x="261" y="500" type="curve" smooth="yes"/>
			<point x="536" y="500" type="line" smooth="yes"/>
			<point x="565" y="500"/>
			<point x="587" y="478"/>
		</contour>
	</outline>
</glyph>
<glyph name="k" format="2">
	<advance width="637"/>
	<unicode hex="006B"/>
	<outline>
		<contour>
			<point x="50" y="449" type="curve" smooth="yes"/>
			<point x="50" y="51" type="line" smooth="yes"/>
			<point x="50" y="22"/>
			<point x="72" y="0"/>
			<point x="101" y="0" type="curve" smooth="yes"/>
			<point x="129" y="0" type="line" smooth="yes"/>
			<point x="158" y="0"/>
			<point x="180" y="22"/>
			<point x="180" y="51" type="curve" smooth="yes"/>
			<point x="180" y="225" type="line" smooth="yes"/>
			<point x="180" y="231"/>
			<point x="184" y="235"/>
			<point x="190" y="235" type="curve" smooth="yes"/>
			<point x="200" y="235" type="line" smooth="yes"/>
			<point x="206" y="235"/>
			<point x="210" y="231"/>
			<point x="210" y="225" type="curve" smooth="yes"/>
			<point x="210" y="51" type="line" smooth="yes"/>
			<point x="210" y="22"/>
			<point x="232" y="0"/>
			<point x="261" y="0" type="curve" smooth="yes"/>
			<point x="536" y="0" type="line" smooth="yes"/>
			<point x="565" y="0"/>
			<point x="587" y="22"/>
			<point x="587" y="51" type="curve" smooth="yes"/>
			<point x="587" y="184" type="line" smooth="yes"/>
			<point x="587" y="213"/>
			<point x="565" y="235"/>
			<point x="536" y="235" type="curve" smooth="yes"/>
			<point x="250" y="235" type="line" smooth="yes"/>
			<point x="244" y="235"/>
			<point x="240" y="239"/>
			<point x="240" y="245" type="curve" smooth="yes"/>
			<point x="240" y="255" type="line" smooth="yes"/>
			<point x="240" y="261"/>
			<point x="244" y="265"/>
			<point x="250" y="265" type="curve" smooth="yes"/>
			<point x="536" y="265" type="line" smooth="yes"/>
			<point x="565" y="265"/>
			<point x="587" y="287"/>
			<point x="587" y="316" type="curve" smooth="yes"/>
			<point x="587" y="449" type="line" smooth="yes"/>
			<point x="587" y="478"/>
			<point x="565" y="500"/>
			<point x="536" y="500" type="curve" smooth="yes"/>
			<point x="261" y="500" type="line" smooth="yes"/>
			<point x="232" y="500"/>
			<point x="210" y="478"/>
			<point x="210" y="449" type="curve" smooth="yes"/>
			<point x="210" y="275" type="line" smooth="yes"/>
			<point x="210" y="269"/>
			<point x="206" y="265"/>
			<point x="200" y="265" type="curve" smooth="yes"/>
			<point x="190" y="265" type="line" smooth="yes"/>
			<point x="184" y="265"/>
			<point x="180" y="269"/>
			<point x="180" y="275" type="curve" smooth="yes"/>
			<point x="180" y="449" type="line" smooth="yes"/>
			<point x="180" y="478"/>
			<point x="158" y="500"/>
			<point x="129" y="500" type="curve" smooth="yes"/>
			<point x="101" y="500" type="line" smooth="yes"/>
			<point x="72" y="500"/>
			<point x="50" y="478"/>
		</contour>
	</outline>
</glyph>
<glyph name="n" format="2">
	<advance width="637"/>
	<unicode hex="006E"/>
	<outline>
		<contour>
			<point x="50" y="449" type="curve" smooth="yes"/>
			<point x="50" y="51" type="line" smooth="yes"/>
			<point x="50" y="21"/>
			<point x="72" y="0"/>
			<point x="102" y="0" type="curve" smooth="yes"/>
			<point x="130" y="0" type="line" smooth="yes"/>
			<point x="159" y="0"/>
			<point x="180" y="21"/>
			<point x="180" y="50" type="curve" smooth="yes"/>
			<point x="180" y="240" type="line" smooth="yes"/>
			<point x="180" y="246"/>
			<point x="184" y="250"/>
			<point x="190" y="250" type="curve" smooth="yes"/>
			<point x="200" y="250" type="line" smooth="yes"/>
			<point x="206" y="250"/>
			<point x="210" y="246"/>
			<point x="210" y="240" type="curve" smooth="yes"/>
			<point x="210" y="51" type="line" smooth="yes"/>
			<point x="210" y="22"/>
			<point x="232" y="0"/>
			<point x="261" y="0" type="curve" smooth="yes"/>
			<point x="536" y="0" type="line" smooth="yes"/>
			<point x="565" y="0"/>
			<point x="587" y="22"/>
			<point x="587" y="51" type="curve" smooth="yes"/>
			<point x="587" y="449" type="line" smooth="yes"/>
			<point x="587" y="478"/>
			<point x="565" y="500"/>
			<point x="536" y="500" type="curve" smooth="yes"/>
			<point x="508" y="500" type="line" smooth="yes"/>
			<point x="479" y="500"/>
			<point x="457" y="478"/>
			<point x="457" y="449" type="curve" smooth="yes"/>
			<point x="457" y="260" type="line" smooth="yes"/>
			<point x="457" y="254"/>
			<point x="453" y="250"/>
			<point x="447" y="250" type="curve" smooth="yes"/>
			<point x="437" y="250" type="line" smooth="yes"/>
			<point x="431" y="250"/>
			<point x="427" y="254"/>
			<point x="427" y="260" type="curve" smooth="yes"/>
			<point x="427" y="449" type="line" smooth="yes"/>
			<point x="427" y="478"/>
			<point x="405" y="500"/>
			<point x="376" y="500" type="curve" smooth="yes"/>
			<point x="101" y="500" type="line" smooth="yes"/>
			<point x="72" y="500"/>
			<point x="50" y="478"/>
		</contour>
	</outline>
</glyph>
<glyph name="o" format="2">
	<advance width="637"/>
	<unicode hex="006F"/>
	<outline>
		<contour>
			<point x="50" y="418" type="curve" smooth="yes"/>
			<point x="50" y="82" type="line" smooth="yes"/>
			<point x="50" y="35"/>
			<point x="85" y="0"/>
			<point x="132" y="0" type="curve" smooth="yes"/>
			<point x="505" y="0" type="line" smooth="yes"/>
			<point x="552" y="0"/>
			<point x="587" y="35"/>
			<point x="587" y="82" type="curve" smooth="yes"/>
			<point x="587" y="418" type="line" smooth="yes"/>
			<point x="587" y="465"/>
			<point x="552" y="500"/>
			<point x="505" y="500" type="curve" smooth="yes"/>
			<point x="132" y="500" type="line" smooth="yes"/>
			<point x="85" y="500"/>
			<point x="50" y="465"/>
		</contour>
		<contour>
			<point x="314" y="370" type="curve" smooth="yes"/>
			<point x="324" y="370" type="line" smooth="yes"/>
			<point x="330" y="370"/>
			<point x="334" y="366"/>
			<point x="334" y="360" type="curve" smooth="yes"/>
			<point x="334" y="140" type="line" smooth="yes"/>
			<point x="334" y="134"/>
			<point x="330" y="130"/>
			<point x="324" y="130" type="curve" smooth="yes"/>
			<point x="314" y="130" type="line" smooth="yes"/>
			<point x="308" y="130"/>
			<point x="304" y="134"/>
			<point x="304" y="140" type="curve" smooth="yes"/>
			<point x="304" y="360" type="line" smooth="yes"/>
			<point x="304" y="366"/>
			<point x="308" y="370"/>
		</contour>
	</outline>
</glyph>
<glyph name="p" format="2">
	<advance width="637"/>
	<unicode hex="0070"/>
	<outline>
		<contour>
			<point x="50" y="449" type="curve" smooth="yes"/>
			<point x="50" y="51" type="line" smooth="yes"/>
			<point x="50" y="22"/>
			<point x="72" y="0"/>
			<point x="101" y="0" type="curve" smooth="yes"/>
			<point x="129" y="0" type="line" smooth="yes"/>
			<point x="158" y="0"/>
			<point x="180" y="22"/>
			<point x="180" y="51" type="curve" smooth="yes"/>
			<point x="180" y="52" type="line" smooth="yes"/>
			<point x="180" y="58"/>
			<point x="184" y="62"/>
			<point x="190" y="62" type="curve" smooth="yes"/>
			<point x="505" y="62" type="line" smooth="yes"/>
			<point x="552" y="62"/>
			<point x="587" y="97"/>
			<point x="587" y="144" type="curve" smooth="yes"/>
			<point x="587" y="418" type="line" smooth="yes"/>
			<point x="587" y="465"/>
			<point x="552" y="500"/>
			<point x="505" y="500" type="curve" smooth="yes"/>
			<point x="101" y="500" type="line" smooth="yes"/>
			<point x="72" y="500"/>
			<point x="50" y="478"/>
		</contour>
		<contour>
			<point x="447" y="266" type="curve" smooth="yes"/>
			<point x="190" y="266" type="line" smooth="yes"/>
			<point x="184" y="266"/>
			<point x="180" y="270"/>
			<point x="180" y="276" type="curve" smooth="yes"/>
			<point x="180" y="286" type="line" smooth="yes"/>
			<point x="180" y="292"/>
			<point x="184" y="296"/>
			<point x="190" y="296" type="curve" smooth="yes"/>
			<point x="447" y="296" type="line" smooth="yes"/>
			<point x="453" y="296"/>
			<point x="457" y="292"/>
			<point x="457" y="286" type="curve" smooth="yes"/>
			<point x="457" y="276" type="line" smooth="yes"/>
			<point x="457" y="270"/>
			<point x="453" y="266"/>
		</contour>
	</outline>
</glyph>
<glyph name="s" format="2">
	<advance width="635"/>
	<unicode hex="0073"/>
	<outline>
		<contour>
			<point x="50" y="418" type="curve" smooth="yes"/>
			<point x="50" y="242" type="line" smooth="yes"/>
			<point x="50" y="195"/>
			<point x="85" y="160"/>
			<point x="132" y="160" type="curve" smooth="yes"/>
			<point x="445" y="160" type="line" smooth="yes"/>
			<point x="451" y="160"/>
			<point x="455" y="156"/>
			<point x="455" y="150" type="curve" smooth="yes"/>
			<point x="455" y="140" type="line" smooth="yes"/>
			<point x="455" y="134"/>
			<point x="451" y="130"/>
			<point x="445" y="130" type="curve" smooth="yes"/>
			<point x="101" y="130" type="line" smooth="yes"/>
			<point x="72" y="130"/>
			<point x="50" y="108"/>
			<point x="50" y="79" type="curve" smooth="yes"/>
			<point x="50" y="51" type="line" smooth="yes"/>
			<point x="50" y="22"/>
			<point x="72" y="0"/>
			<point x="101" y="0" type="curve" smooth="yes"/>
			<point x="503" y="0" type="line" smooth="yes"/>
			<point x="550" y="0"/>
			<point x="585" y="35"/>
			<point x="585" y="82" type="curve" smooth="yes"/>
			<point x="585" y="258" type="line" smooth="yes"/>
			<point x="585" y="305"/>
			<point x="550" y="340"/>
			<point x="503" y="340" type="curve" smooth="yes"/>
			<point x="190" y="340" type="line" smooth="yes"/>
			<point x="184" y="340"/>
			<point x="180" y="344"/>
			<point x="180" y="350" type="curve" smooth="yes"/>
			<point x="180" y="360" type="line" smooth="yes"/>
			<point x="180" y="366"/>
			<point x="184" y="370"/>
			<point x="190" y="370" type="curve" smooth="yes"/>
			<point x="534" y="370" type="line" smooth="yes"/>
			<point x="563" y="370"/>
			<point x="585" y="392"/>
			<point x="585" y="421" type="curve" smooth="yes"/>
			<point x="585" y="449" type="line" smooth="yes"/>
			<point x="585" y="478"/>
			<point x="563" y="500"/>
			<point x="534" y="500" type="curve" smooth="yes"/>
			<point x="132" y="500" type="line" smooth="yes"/>
			<point x="85" y="500"/>
			<point x="50" y="465"/>
		</contour>
	</outline>
</glyph>
<glyph name="t" format="2">
	<advance width="637"/>
	<unicode hex="0074"/>
	<outline>
		<contour>
			<point x="101" y="70" type="curve" smooth="yes"/>
			<point x="129" y="70" type="line" smooth="yes"/>
			<point x="158" y="70"/>
			<point x="180" y="92"/>
			<point x="180" y="121" type="curve" smooth="yes"/>
			<point x="180" y="313" type="line" smooth="yes"/>
			<point x="180" y="319"/>
			<point x="184" y="323"/>
			<point x="190" y="323" type="curve" smooth="yes"/>
			<point x="200" y="323" type="line" smooth="yes"/>
			<point x="206" y="323"/>
			<point x="210" y="319"/>
			<point x="210" y="313" type="curve" smooth="yes"/>
			<point x="210" y="51" type="line" smooth="yes"/>
			<point x="210" y="22"/>
			<point x="232" y="0"/>
			<point x="261" y="0" type="curve" smooth="yes"/>
			<point x="376" y="0" type="line" smooth="yes"/>
			<point x="405" y="0"/>
			<point x="427" y="22"/>
			<point x="427" y="51" type="curve" smooth="yes"/>
			<point x="427" y="313" type="line" smooth="yes"/>
			<point x="427" y="319"/>
			<point x="431" y="323"/>
			<point x="437" y="323" type="curve" smooth="yes"/>
			<point x="447" y="323" type="line" smooth="yes"/>
			<point x="453" y="323"/>
			<point x="457" y="319"/>
			<point x="457" y="313" type="curve" smooth="yes"/>
			<point x="457" y="121" type="line" smooth="yes"/>
			<point x="457" y="92"/>
			<point x="479" y="70"/>
			<point x="508" y="70" type="curve" smooth="yes"/>
			<point x="536" y="70" type="line" smooth="yes"/>
			<point x="565" y="70"/>
			<point x="587" y="92"/>
			<point x="587" y="121" type="curve" smooth="yes"/>
			<point x="587" y="449" type="line" smooth="yes"/>
			<point x="587" y="478"/>
			<point x="565" y="500"/>
			<point x="536" y="500" type="curve" smooth="yes"/>
			<point x="101" y="500" type="line" smooth="yes"/>
			<point x="72" y="500"/>
			<point x="50" y="478"/>
			<point x="50" y="449" type="curve" smooth="yes"/>
			<point x="50" y="121" type="line" smooth="yes"/>
			<point x="50" y="92"/>
			<point x="72" y="70"/>
		</contour>
	</outline>
</glyph>
<glyph name="v" format="2">
	<advance width="637"/>
	<unicode hex="0076"/>
	<outline>
		<contour>
			<point x="50" y="449" type="curve" smooth="yes"/>
			<point x="50" y="113" type="line" smooth="yes"/>
			<point x="50" y="84"/>
			<point x="72" y="62"/>
			<point x="101" y="62" type="curve" smooth="yes"/>
			<point x="172" y="62" type="line" smooth="yes"/>
			<point x="178" y="62"/>
			<point x="182" y="58"/>
			<point x="182" y="52" type="curve" smooth="yes"/>
			<point x="182" y="51" type="line" smooth="yes"/>
			<point x="182" y="22"/>
			<point x="204" y="0"/>
			<point x="233" y="0" type="curve" smooth="yes"/>
			<point x="407" y="0" type="line" smooth="yes"/>
			<point x="436" y="0"/>
			<point x="458" y="22"/>
			<point x="458" y="51" type="curve" smooth="yes"/>
			<point x="458" y="52" type="line" smooth="yes"/>
			<point x="458" y="58"/>
			<point x="462" y="62"/>
			<point x="468" y="62" type="curve" smooth="yes"/>
			<point x="536" y="62" type="line" smooth="yes"/>
			<point x="565" y="62"/>
			<point x="587" y="84"/>
			<point x="587" y="113" type="curve" smooth="yes"/>
			<point x="587" y="449" type="line" smooth="yes"/>
			<point x="587" y="478"/>
			<point x="565" y="500"/>
			<point x="536" y="500" type="curve" smooth="yes"/>
			<point x="384" y="500" type="line" smooth="yes"/>
			<point x="355" y="500"/>
			<point x="333" y="478"/>
			<point x="333" y="449" type="curve" smooth="yes"/>
			<point x="333" y="154" type="line" smooth="yes"/>
			<point x="333" y="148"/>
			<point x="329" y="144"/>
			<point x="323" y="144" type="curve" smooth="yes"/>
			<point x="313" y="144" type="line" smooth="yes"/>
			<point x="307" y="144"/>
			<point x="303" y="148"/>
			<point x="303" y="154" type="curve" smooth="yes"/>
			<point x="303" y="449" type="line" smooth="yes"/>
			<point x="303" y="478"/>
			<point x="281" y="500"/>
			<point x="252" y="500" type="curve" smooth="yes"/>
			<point x="101" y="500" type="line" smooth="yes"/>
			<point x="72" y="500"/>
			<point x="50" y="478"/>
		</contour>
	</outline>
</glyph>
<glyph name="w" format="2">
	<advance width="637"/>
	<unicode hex="0077"/>
	<outline>
		<contour>
			<point x="50" y="449" type="curve" smooth="yes"/>
			<point x="50" y="51" type="line" smooth="yes"/>
			<point x="50" y="22"/>
			<point x="72" y="0"/>
			<point x="101" y="0" type="curve" smooth="yes"/>
			<point x="249" y="0" type="line" smooth="yes"/>
			<point x="278" y="0"/>
			<point x="300" y="22"/>
			<point x="300" y="51" type="curve" smooth="yes"/>
			<point x="300" y="240" type="line" smooth="yes"/>
			<point x="300" y="246"/>
			<point x="304" y="250"/>
			<point x="310" y="250" type="curve" smooth="yes"/>
			<point x="320" y="250" type="line" smooth="yes"/>
			<point x="326" y="250"/>
			<point x="330" y="246"/>
			<point x="330" y="240" type="curve" smooth="yes"/>
			<point x="330" y="51" type="line" smooth="yes"/>
			<point x="330" y="22"/>
			<point x="352" y="0"/>
			<point x="381" y="0" type="curve" smooth="yes"/>
			<point x="536" y="0" type="line" smooth="yes"/>
			<point x="565" y="0"/>
			<point x="587" y="22"/>
			<point x="587" y="51" type="curve" smooth="yes"/>
			<point x="587" y="449" type="line" smooth="yes"/>
			<point x="587" y="478"/>
			<point x="565" y="500"/>
			<point x="536" y="500" type="curve" smooth="yes"/>
			<point x="508" y="500" type="line" smooth="yes"/>
			<point x="479" y="500"/>
			<point x="457" y="478"/>
			<point x="457" y="449" type="curve" smooth="yes"/>
			<point x="457" y="270" type="line" smooth="yes"/>
			<point x="457" y="264"/>
			<point x="453" y="260"/>
			<point x="447" y="260" type="curve" smooth="yes"/>
			<point x="437" y="260" type="line" smooth="yes"/>
			<point x="431" y="260"/>
			<point x="427" y="264"/>
			<point x="427" y="270" type="curve" smooth="yes"/>
			<point x="427" y="449" type="line" smooth="yes"/>
			<point x="427" y="478"/>
			<point x="405" y="500"/>
			<point x="376" y="500" type="curve" smooth="yes"/>
			<point x="261" y="500" type="line" smooth="yes"/>
			<point x="232" y="500"/>
			<point x="210" y="478"/>
			<point x="210" y="449" type="curve" smooth="yes"/>
			<point x="210" y="270" type="line" smooth="yes"/>
			<point x="210" y="264"/>
			<point x="206" y="260"/>
			<point x="200" y="260" type="curve" smooth="yes"/>
			<point x="190" y="260" type="line" smooth="yes"/>
			<point x="184" y="260"/>
			<point x="180" y="264"/>
			<point x="180" y="270" type="curve" smooth="yes"/>
			<point x="180" y="449" type="line" smooth="yes"/>
			<point x="180" y="478"/>
			<point x="158" y="500"/>
			<point x="129" y="500" type="curve" smooth="yes"/>
			<point x="101" y="500" type="line" smooth="yes"/>
			<point x="72" y="500"/>
			<point x="50" y="478"/>
		</contour>
	</outline>
</glyph>
<glyph name="x" format="2">
	<advance width="630"/>
	<unicode hex="0078"/>
	<outline>
		<contour>
			<point x="50" y="449" type="curve" smooth="yes"/>
			<point x="50" y="316" type="line" smooth="yes"/>
			<point x="50" y="287"/>
			<point x="72" y="265"/>
			<point x="101" y="265" type="curve" smooth="yes"/>
			<point x="290" y="265" type="line" smooth="yes"/>
			<point x="296" y="265"/>
			<point x="300" y="261"/>
			<point x="300" y="255" type="curve" smooth="yes"/>
			<point x="300" y="245" type="line" smooth="yes"/>
			<point x="300" y="239"/>
			<point x="296" y="235"/>
			<point x="290" y="235" type="curve" smooth="yes"/>
			<point x="101" y="235" type="line" smooth="yes"/>
			<point x="72" y="235"/>
			<point x="50" y="213"/>
			<point x="50" y="184" type="curve" smooth="yes"/>
			<point x="50" y="51" type="line" smooth="yes"/>
			<point x="50" y="22"/>
			<point x="72" y="0"/>
			<point x="101" y="0" type="curve" smooth="yes"/>
			<point x="252" y="0" type="line" smooth="yes"/>
			<point x="281" y="0"/>
			<point x="303" y="22"/>
			<point x="303" y="51" type="curve" smooth="yes"/>
			<point x="303" y="222" type="line" smooth="yes"/>
			<point x="303" y="228"/>
			<point x="307" y="232"/>
			<point x="313" y="232" type="curve" smooth="yes"/>
			<point x="323" y="232" type="line" smooth="yes"/>
			<point x="329" y="232"/>
			<point x="333" y="228"/>
			<point x="333" y="222" type="curve" smooth="yes"/>
			<point x="333" y="51" type="line" smooth="yes"/>
			<point x="333" y="22"/>
			<point x="355" y="0"/>
			<point x="384" y="0" type="curve" smooth="yes"/>
			<point x="536" y="0" type="line" smooth="yes"/>
			<point x="565" y="0"/>
			<point x="587" y="22"/>
			<point x="587" y="51" type="curve" smooth="yes"/>
			<point x="587" y="184" type="line" smooth="yes"/>
			<point x="587" y="213"/>
			<point x="565" y="235"/>
			<point x="536" y="235" type="curve" smooth="yes"/>
			<point x="346" y="235" type="line" smooth="yes"/>
			<point x="340" y="235"/>
			<point x="336" y="239"/>
			<point x="336" y="245" type="curve" smooth="yes"/>
			<point x="336" y="255" type="line" smooth="yes"/>
			<point x="336" y="261"/>
			<point x="340" y="265"/>
			<point x="346" y="265" type="curve" smooth="yes"/>
			<point x="536" y="265" type="line" smooth="yes"/>
			<point x="565" y="265"/>
			<point x="587" y="287"/>
			<point x="587" y="316" type="curve" smooth="yes"/>
			<point x="587" y="449" type="line" smooth="yes"/>
			<point x="587" y="478"/>
			<point x="565" y="500"/>
			<point x="536" y="500" type="curve" smooth="yes"/>
			<point x="384" y="500" type="line" smooth="yes"/>
			<point x="355" y="500"/>
			<point x="333" y="478"/>
			<point x="333" y="449" type="curve" smooth="yes"/>
			<point x="333" y="278" type="line" smooth="yes"/>
			<point x="333" y="272"/>
			<point x="329" y="268"/>
			<point x="323" y="268" type="curve" smooth="yes"/>
			<point x="313" y="268" type="line" smooth="yes"/>
			<point x="307" y="268"/>
			<point x="303" y="272"/>
			<point x="303" y="278" type="curve" smooth="yes"/>
			<point x="303" y="449" type="line" smooth="yes"/>
			<point x="303" y="478"/>
			<point x="281" y="500"/>
			<point x="252" y="500" type="curve" smooth="yes"/>
			<point x="101" y="500" type="line" smooth="yes"/>
			<point x="72" y="500"/>
			<point x="50" y="478"/>
		</contour>
	</outline>
</glyph>
<glyph name="y" format="2">
	<advance width="638"/>
	<unicode hex="0079"/>
	<outline>
		<contour>
			<point x="50" y="449" type="curve" smooth="yes"/>
			<point x="50" y="301" type="line" smooth="yes"/>
			<point x="50" y="272"/>
			<point x="72" y="250"/>
			<point x="101" y="250" type="curve" smooth="yes"/>
			<point x="170" y="250" type="line" smooth="yes"/>
			<point x="176" y="250"/>
			<point x="180" y="246"/>
			<point x="180" y="240" type="curve" smooth="yes"/>
			<point x="180" y="51" type="line" smooth="yes"/>
			<point x="180" y="22"/>
			<point x="202" y="0"/>
			<point x="231" y="0" type="curve" smooth="yes"/>
			<point x="407" y="0" type="line" smooth="yes"/>
			<point x="436" y="0"/>
			<point x="458" y="22"/>
			<point x="458" y="51" type="curve" smooth="yes"/>
			<point x="458" y="240" type="line" smooth="yes"/>
			<point x="458" y="246"/>
			<point x="462" y="250"/>
			<point x="468" y="250" type="curve" smooth="yes"/>
			<point x="537" y="250" type="line" smooth="yes"/>
			<point x="566" y="250"/>
			<point x="588" y="272"/>
			<point x="588" y="301" type="curve" smooth="yes"/>
			<point x="588" y="449" type="line" smooth="yes"/>
			<point x="588" y="478"/>
			<point x="566" y="500"/>
			<point x="537" y="500" type="curve" smooth="yes"/>
			<point x="384" y="500" type="line" smooth="yes"/>
			<point x="355" y="500"/>
			<point x="333" y="478"/>
			<point x="333" y="449" type="curve" smooth="yes"/>
			<point x="333" y="266" type="line" smooth="yes"/>
			<point x="333" y="260"/>
			<point x="329" y="256"/>
			<point x="323" y="256" type="curve" smooth="yes"/>
			<point x="313" y="256" type="line" smooth="yes"/>
			<point x="307" y="256"/>
			<point x="303" y="260"/>
			<point x="303" y="266" type="curve" smooth="yes"/>
			<point x="303" y="449" type="line" smooth="yes"/>
			<point x="303" y="478"/>
			<point x="281" y="500"/>
			<point x="252" y="500" type="curve" smooth="yes"/>
			<point x="101" y="500" type="line" smooth="yes"/>
			<point x="72" y="500"/>
			<point x="50" y="478"/>
		</contour>
	</outline>
</glyph>
<glyph name="guillemetleft" format="2">
	<advance width="497"/>
	<unicode hex="00AB"/>
	<outline>
		<contour>
			<point x="275" y="125" type="curve" smooth="yes"/>
			<point x="432" y="125" type="line" smooth="yes"/>
			<point x="440" y="125"/>
			<point x="447" y="132"/>
			<point x="447" y="140" type="curve" smooth="yes"/>
			<point x="447" y="220" type="line" smooth="yes"/>
			<point x="447" y="228"/>
			<point x="440" y="235"/>
			<point x="432" y="235" type="curve" smooth="yes"/>
			<point x="385" y="235" type="line" smooth="yes"/>
			<point x="377" y="235"/>
			<point x="370" y="242"/>
			<point x="370" y="250" type="curve" smooth="yes"/>
			<point x="370" y="330" type="line" smooth="yes"/>
			<point x="370" y="338"/>
			<point x="377" y="345"/>
			<point x="385" y="345" type="curve" smooth="yes"/>
			<point x="432" y="345" type="line" smooth="yes"/>
			<point x="440" y="345"/>
			<point x="447" y="352"/>
			<point x="447" y="360" type="curve" smooth="yes"/>
			<point x="447" y="440" type="line" smooth="yes"/>
			<point x="447" y="448"/>
			<point x="440" y="455"/>
			<point x="432" y="455" type="curve" smooth="yes"/>
			<point x="275" y="455" type="line" smooth="yes"/>
			<point x="267" y="455"/>
			<point x="260" y="448"/>
			<point x="260" y="440" type="curve" smooth="yes"/>
			<point x="260" y="140" type="line" smooth="yes"/>
			<point x="260" y="132"/>
			<point x="267" y="125"/>
		</contour>
		<contour>
			<point x="65" y="125" type="curve" smooth="yes"/>
			<point x="222" y="125" type="line" smooth="yes"/>
			<point x="230" y="125"/>
			<point x="237" y="132"/>
			<point x="237" y="140" type="curve" smooth="yes"/>
			<point x="237" y="220" type="line" smooth="yes"/>
			<point x="237" y="228"/>
			<point x="230" y="235"/>
			<point x="222" y="235" type="curve" smooth="yes"/>
			<point x="175" y="235" type="line" smooth="yes"/>
			<point x="167" y="235"/>
			<point x="160" y="242"/>
			<point x="160" y="250" type="curve" smooth="yes"/>
			<point x="160" y="330" type="line" smooth="yes"/>
			<point x="160" y="338"/>
			<point x="167" y="345"/>
			<point x="175" y="345" type="curve" smooth="yes"/>
			<point x="222" y="345" type="line" smooth="yes"/>
			<point x="230" y="345"/>
			<point x="237" y="352"/>
			<point x="237" y="360" type="curve" smooth="yes"/>
			<point x="237" y="440" type="line" smooth="yes"/>
			<point x="237" y="448"/>
			<point x="230" y="455"/>
			<point x="222" y="455" type="curve" smooth="yes"/>
			<point x="65" y="455" type="line" smooth="yes"/>
			<point x="57" y="455"/>
			<point x="50" y="448"/>
			<point x="50" y="440" type="curve" smooth="yes"/>
			<point x="50" y="140" type="line" smooth="yes"/>
			<point x="50" y="132"/>
			<point x="57" y="125"/>
		</contour>
	</outline>
</glyph>
<glyph name="gravecomb" format="2">
	<advance width="600"/>
	<unicode hex="0300"/>
	<anchor x="296" y="500" name="_top"/>
	<outline>
		<contour>
			<point x="196" y="647" type="curve" smooth="yes"/>
			<point x="196" y="546" type="line" smooth="yes"/>
			<point x="196" y="540"/>
			<point x="200" y="536"/>
			<point x="206" y="536" type="curve" smooth="yes"/>
			<point x="389" y="536" type="line" smooth="yes"/>
			<point x="395" y="536"/>
			<point x="399" y="540"/>
			<point x="399" y="546" type="curve" smooth="yes"/>
			<point x="399" y="576" type="line" smooth="yes"/>
			<point x="399" y="582"/>
			<point x="395" y="586"/>
			<point x="389" y="586" type="curve" smooth="yes"/>
			<point x="246" y="586" type="line"/>
			<point x="246" y="647" type="line" smooth="yes"/>
			<point x="246" y="653"/>
			<point x="242" y="657"/>
			<point x="236" y="657" type="curve" smooth="yes"/>
			<point x="206" y="657" type="line" smooth="yes"/>
			<point x="200" y="657"/>
			<point x="196" y="653"/>
		</contour>
	</outline>
</glyph>
<glyph name="acutecomb" format="2">
	<advance width="600"/>
	<unicode hex="0301"/>
	<anchor x="300" y="500" name="_top"/>
	<outline>
		<contour>
			<point x="399" y="647" type="line" smooth="yes"/>
			<point x="399" y="653"/>
			<point x="395" y="657"/>
			<point x="389" y="657" type="curve" smooth="yes"/>
			<point x="359" y="657" type="line" smooth="yes"/>
			<point x="353" y="657"/>
			<point x="349" y="653"/>
			<point x="349" y="647" type="curve" smooth="yes"/>
			<point x="349" y="586" type="line"/>
			<point x="206" y="586" type="line" smooth="yes"/>
			<point x="200" y="586"/>
			<point x="196" y="582"/>
			<point x="196" y="576" type="curve" smooth="yes"/>
			<point x="196" y="546" type="line" smooth="yes"/>
			<point x="196" y="540"/>
			<point x="200" y="536"/>
			<point x="206" y="536" type="curve" smooth="yes"/>
			<point x="389" y="536" type="line" smooth="yes"/>
			<point x="395" y="536"/>
			<point x="399" y="540"/>
			<point x="399" y="546" type="curve" smooth="yes"/>
		</contour>
	</outline>
</glyph>
<glyph name="circumflexcomb" format="2">
	<advance width="600"/>
	<unicode hex="0302"/>
	<anchor x="301" y="500" name="_top"/>
	<outline>
		<contour>
			<point x="196" y="607" type="curve" smooth="yes"/>
			<point x="196" y="546" type="line" smooth="yes"/>
			<point x="196" y="540"/>
			<point x="200" y="536"/>
			<point x="206" y="536" type="curve" smooth="yes"/>
			<point x="236" y="536" type="line" smooth="yes"/>
			<point x="242" y="536"/>
			<point x="246" y="540"/>
			<point x="246" y="546" type="curve" smooth="yes"/>
			<point x="246" y="567" type="line"/>
			<point x="349" y="567" type="line"/>
			<point x="349" y="546" type="line" smooth="yes"/>
			<point x="349" y="540"/>
			<point x="353" y="536"/>
			<point x="359" y="536" type="curve" smooth="yes"/>
			<point x="389" y="536" type="line" smooth="yes"/>
			<point x="395" y="536"/>
			<point x="399" y="540"/>
			<point x="399" y="546" type="curve" smooth="yes"/>
			<point x="399" y="607" type="line" smooth="yes"/>
			<point x="399" y="613"/>
			<point x="395" y="617"/>
			<point x="389" y="617" type="curve" smooth="yes"/>
			<point x="206" y="617" type="line" smooth="yes"/>
			<point x="200" y="617"/>
			<point x="196" y="613"/>
		</contour>
	</outline>
</glyph>
<glyph name="tildecomb" format="2">
	<advance width="600"/>
	<unicode hex="0303"/>
	<anchor x="302" y="500" name="_top"/>
	<outline>
		<contour>
			<point x="196" y="535" type="line" smooth="yes"/>
			<point x="196" y="529"/>
			<point x="200" y="525"/>
			<point x="206" y="525" type="curve" smooth="yes"/>
			<point x="236" y="525" type="line" smooth="yes"/>
			<point x="242" y="525"/>
			<point x="246" y="529"/>
			<point x="246" y="535" type="curve" smooth="yes"/>
			<point x="246" y="576" type="line"/>
			<point x="389" y="576" type="line" smooth="yes"/>
			<point x="395" y="576"/>
			<point x="399" y="580"/>
			<point x="399" y="586" type="curve" smooth="yes"/>
			<point x="399" y="667" type="line" smooth="yes"/>
			<point x="399" y="673"/>
			<point x="395" y="677"/>
			<point x="389" y="677" type="curve" smooth="yes"/>
			<point x="359" y="677" type="line" smooth="yes"/>
			<point x="353" y="677"/>
			<point x="349" y="673"/>
			<point x="349" y="667" type="curve" smooth="yes"/>
			<point x="349" y="626" type="line"/>
			<point x="206" y="626" type="line" smooth="yes"/>
			<point x="200" y="626"/>
			<point x="196" y="622"/>
			<point x="196" y="616" type="curve" smooth="yes"/>
		</contour>
	</outline>
</glyph>
<glyph name="dotaccentcomb" format="2">
	<advance width="600"/>
	<unicode hex="0307"/>
	<anchor x="328" y="500" name="_top"/>
	<outline>
		<contour>
			<point x="296" y="595" type="curve" smooth="yes"/>
			<point x="296" y="565" type="line" smooth="yes"/>
			<point x="296" y="559"/>
			<point x="300" y="555"/>
			<point x="306" y="555" type="curve" smooth="yes"/>
			<point x="336" y="555" type="line" smooth="yes"/>
			<point x="342" y="555"/>
			<point x="346" y="559"/>
			<point x="346" y="565" type="curve" smooth="yes"/>
			<point x="346" y="595" type="line" smooth="yes"/>
			<point x="346" y="601"/>
			<point x="342" y="605"/>
			<point x="336" y="605" type="curve" smooth="yes"/>
			<point x="306" y="605" type="line" smooth="yes"/>
			<point x="300" y="605"/>
			<point x="296" y="601"/>
		</contour>
	</outline>
</glyph>
<glyph name="dieresiscomb" format="2">
	<advance width="600"/>
	<unicode hex="0308"/>
	<anchor x="309" y="500" name="_top"/>
	<outline>
		<contour>
			<point x="226" y="595" type="curve" smooth="yes"/>
			<point x="226" y="565" type="line" smooth="yes"/>
			<point x="226" y="559"/>
			<point x="230" y="555"/>
			<point x="236" y="555" type="curve" smooth="yes"/>
			<point x="266" y="555" type="line" smooth="yes"/>
			<point x="272" y="555"/>
			<point x="276" y="559"/>
			<point x="276" y="565" type="curve" smooth="yes"/>
			<point x="276" y="595" type="line" smooth="yes"/>
			<point x="276" y="601"/>
			<point x="272" y="605"/>
			<point x="266" y="605" type="curve" smooth="yes"/>
			<point x="236" y="605" type="line" smooth="yes"/>
			<point x="230" y="605"/>
			<point x="226" y="601"/>
		</contour>
		<contour>
			<point x="336" y="595" type="curve" smooth="yes"/>
			<point x="336" y="565" type="line" smooth="yes"/>
			<point x="336" y="559"/>
			<point x="340" y="555"/>
			<point x="346" y="555" type="curve" smooth="yes"/>
			<point x="376" y="555" type="line" smooth="yes"/>
			<point x="382" y="555"/>
			<point x="386" y="559"/>
			<point x="386" y="565" type="curve" smooth="yes"/>
			<point x="386" y="595" type="line" smooth="yes"/>
			<point x="386" y="601"/>
			<point x="382" y="605"/>
			<point x="376" y="605" type="curve" smooth="yes"/>
			<point x="346" y="605" type="line" smooth="yes"/>
			<point x="340" y="605"/>
			<point x="336" y="601"/>
		</contour>
	</outline>
</glyph>
<glyph name="cedillacomb" format="2">
	<advance width="600"/>
	<unicode hex="0327"/>
	<anchor x="334" y="0" name="_bottom"/>
	<outline>
		<contour>
			<point x="193" y="-200" type="curve" smooth="yes"/>
			<point x="334" y="-200" type="line" smooth="yes"/>
			<point x="340" y="-200"/>
			<point x="344" y="-196"/>
			<point x="344" y="-190" type="curve" smooth="yes"/>
			<point x="344" y="-77" type="line"/>
			<point x="365" y="-77" type="line" smooth="yes"/>
			<point x="371" y="-77"/>
			<point x="375" y="-73"/>
			<point x="375" y="-67" type="curve" smooth="yes"/>
			<point x="375" y="-37" type="line" smooth="yes"/>
			<point x="375" y="-31"/>
			<point x="371" y="-27"/>
			<point x="365" y="-27" type="curve" smooth="yes"/>
			<point x="304" y="-27" type="line" smooth="yes"/>
			<point x="298" y="-27"/>
			<point x="294" y="-31"/>
			<point x="294" y="-37" type="curve" smooth="yes"/>
			<point x="294" y="-150" type="line"/>
			<point x="193" y="-150" type="line" smooth="yes"/>
			<point x="187" y="-150"/>
			<point x="183" y="-154"/>
			<point x="183" y="-160" type="curve" smooth="yes"/>
			<point x="183" y="-190" type="line" smooth="yes"/>
			<point x="183" y="-196"/>
			<point x="187" y="-200"/>
		</contour>
	</outline>
</glyph>
